<svg xmlns="http://www.w3.org/2000/svg" viewBox="0 0 500 500"><g id="freepik--Shapes--inject-20"><g id="freepik--Background--inject-20"><path d="M100.13,265.08A63.5,63.5,0,0,1,105,246.42c9.5-21.77,20.42-34.71,35.69-52.07,17.09-19.42,26.32-37,42.25-57.19,16.82-21.31,49.68-37,76.18-40.89s56.74.59,77.92,16.34a154.5,154.5,0,0,1,50,64.58c15.36,36.89,16.63,79.41-.81,117-14.41,31.07-43.88,53.12-76,65.13-63,23.59-105.06,18.21-150.65-2.67-20-9.18-39.24-27.28-50-46.54A76.91,76.91,0,0,1,100.13,265.08Z" style="fill:#BA68C8;opacity:0.07"></path><path d="M442.08,197.2a40.76,40.76,0,0,1,8.45,9.13c8.54,12.73,9.13,28.65,13.26,43,4.63,16,16.53,28.35,22,44,5.74,16.56,3.3,35.5-3.78,51.27S458.59,373,442.67,379a99.74,99.74,0,0,1-52.51,4.77c-25.4-4.46-49-18.55-63.34-41.09-11.89-18.64-13.63-42.32-9-63.94,9.07-42.47,26.61-63.46,53.8-81,12-7.71,28.48-11.86,42.69-11A49.59,49.59,0,0,1,442.08,197.2Z" style="fill:#BA68C8;opacity:0.07"></path><path d="M89.76,386.69a40.73,40.73,0,0,1-10.52-6.64C67.71,370,63,354.73,55.34,341.94c-8.61-14.31-23.29-23.13-32.58-36.87-9.82-14.51-12.35-33.44-9.58-50.5s15.28-33.44,29.1-43.39A99.71,99.71,0,0,1,91.78,193c25.7-2.24,52.1,5.29,71.8,23.36,16.29,14.94,24.09,37.37,25.21,59.45C191,319.2,179.46,344,157.71,368c-9.57,10.53-24.45,18.8-38.4,21.65A49.56,49.56,0,0,1,89.76,386.69Z" style="fill:#BA68C8;opacity:0.07"></path><path d="M155.3,138.46c-2.21,1.67-4.66,3.39-7.43,3.36-3,0-5.67-2.19-7-4.86a17.77,17.77,0,0,1-1.45-8.76,42.33,42.33,0,0,1,12.93-28.54c8.88-8.46,29.18-18.45,36.76-3.45,4.88,9.67-3.87,16.29-10.36,22.41A286,286,0,0,1,155.3,138.46Z" style="fill:#BA68C8;opacity:0.07"></path></g></g><g id="freepik--character-3--inject-20"><g id="freepik--Character--inject-20"><g id="freepik--Bottom--inject-20"><path d="M377.79,316.64l11.4,11.43,7.27,17.51s-3.85,9.7-6.8,19a28.87,28.87,0,0,1,13.59,10c3.48,4.54,4.86,6.64,8.69,10.06,2.69,2.41,5.78,5,8.64,7.19,1.22.94,2.56,2.07,2.65,3.61a6.55,6.55,0,0,1-.91,3,35.27,35.27,0,0,0-2.31,8.79,31.25,31.25,0,0,1-2.47,8.74,10.94,10.94,0,0,1-6.6,5.88,3.91,3.91,0,0,1-3.15-.27,3.39,3.39,0,0,1-1.35-2.38,9.41,9.41,0,0,1,.16-2.8,59.84,59.84,0,0,0,.95-7.29,15.1,15.1,0,0,0-2.92-9.94c-2.12-2.64-5.08-4.43-7.94-6.15-5.38-3.25-12.42-7.83-22.72-15.14-9.79-6.94-13.16-10.8-13.16-17.07,0-6.66,5.48-21.85,11.37-38C377.39,308.56,377.79,316.64,377.79,316.64Z" style="fill:#f28f8f"></path><path d="M373.21,318.41c-1.08,3.81-3.13,7-7,18.72-3.2,9.77-5.23,17-5.23,17s19,13,34.51,6.31l17.23-43.16Z" style="fill:#37474f"></path><path d="M396.28,358.21l-4.15-16s-12.41-8.22-14.59-12.86c-2.13,9,6,15.29,6,15.29l-5.44,16.88a23.33,23.33,0,0,0,17.4-1.43Z" style="fill:#263238"></path><path d="M372.4,448.8a13,13,0,0,1-1.4.05,8.19,8.19,0,0,1-4.54-1.2,4.49,4.49,0,0,1-2.07-4,5,5,0,0,1,1.67-3,19.19,19.19,0,0,1,2.86-2,35.68,35.68,0,0,0,8-6.69,26.67,26.67,0,0,0,3-4.18,9.49,9.49,0,0,0,1.14-2.3,7.76,7.76,0,0,0-.12-2.3c-.92-8-2.08-15.9-3.33-23.86-2.28-14.49-3.21-17.27-1.15-24.74,3.89-14.09,5.26-16.37,9.55-31.59-9.34-6.61-9.35-13.88-7.9-24.57,5.38,2.25,11.85,2.62,17.5,2.71s11.31.11,16.63-1.75c9.86,20.78,6.18,25.8-4.91,45.8-5.7,10.29-10.36,19.7-10.36,19.7,1.38,7,1.32,10.11.3,19.18A131.18,131.18,0,0,0,396,418.53c0,1.67-.18,3.77.4,5.35a27.29,27.29,0,0,1,1.25,4.63,12.57,12.57,0,0,1,.46,4.53,3.45,3.45,0,0,1-.51,1.44,5.21,5.21,0,0,1-2.17,1.49,26.34,26.34,0,0,0-3,1.7c-3.44,2.24-6.54,5-10,7.21A22.62,22.62,0,0,1,372.4,448.8Z" style="fill:#ffa8a7"></path><path d="M417.43,319.14s.75,6.15,1.23,11.78a43.19,43.19,0,0,1-2.37,17.1c-2.21,6.67-14.38,27.81-14.38,27.81a40.71,40.71,0,0,1-23.58-9.18l7.06-23.42s-13.78-4.62-8-25.08Z" style="fill:#455a64"></path><path d="M364,445.53a3.67,3.67,0,0,0,1.12,3.57c1.61,1.09,6.15,2.64,11.72,1.22s7-2.73,9-4.9,3.88-4.41,6.38-5.29c2.31-.81,5.82-2.2,6.49-3s.17-4.08.17-4.08Z" style="fill:#263238"></path><path d="M396.06,418.82s.59-.24.83.5.46,3,1,5.6a57.27,57.27,0,0,1,1.07,9.24c-.11,1.71-4.9,3.34-7.26,4.58A23.81,23.81,0,0,0,385.3,444a17.6,17.6,0,0,1-10,5.09c-4.37.49-9.45-.33-10.83-2.22-1.69-2.34-3-5.27,3.16-9,1.15-.71,4.66-3.39,6-4.49a27.43,27.43,0,0,0,4.09-4,8.6,8.6,0,0,0,1.8-2.72,20.44,20.44,0,0,0,.46-3.31,1.74,1.74,0,0,1,.2-.67,1.57,1.57,0,0,1,.71-.53c.95-.41,2.79.12,3.82.13a8.37,8.37,0,0,1,2.24.25,3.2,3.2,0,0,1,1.83,1.25c.17.27.29.58.48.84,1.16,1.61,2.25-1.17,2.77-2,.26-.42,2.37-1.28,2.72-1.62a10.76,10.76,0,0,0,1-.86A1.44,1.44,0,0,0,396.06,418.82Z" style="fill:#37474f"></path><path d="M385.3,444A32.71,32.71,0,0,1,388,441.3h0s-6.57,3.56-9.9,1.83c-2.15-1.11-1.4-2.87-1.42-3.4s-5.94-2.75-7.9-2.75h0c-.5.36-.92.66-1.18.82-6.12,3.78-4.85,6.71-3.16,9,1.38,1.89,5.13,3,10.77,2.36A18.08,18.08,0,0,0,385.3,444Z" style="fill:#455a64"></path><path d="M377.06,438.12c-3.83,2.09-2,2.64-.88,2.66s6.44-3.93,10.17-7.69c3.9-3.94,7.23-8,8.68-9.44.54-.54,1.77-1.49,2.28-2.1a20.24,20.24,0,0,0-.42-2.23,1.08,1.08,0,0,0-.88-.79l-.29,1.41a3.18,3.18,0,0,1-1,.9,10.19,10.19,0,0,0-2.64,1.73,16.82,16.82,0,0,1-1.5,2.3C387.58,429.76,380.89,436,377.06,438.12Z" style="fill:#263238"></path><path d="M376.4,440.16a.39.39,0,0,0,.24-.12.41.41,0,0,0,0-.57c-1.31-1.25-5.57-3.25-8.5-2.57a.4.4,0,0,0-.3.48.39.39,0,0,0,.48.3c2.73-.63,6.73,1.37,7.76,2.37A.41.41,0,0,0,376.4,440.16Z" style="fill:#f0f0f0"></path><path d="M379.68,437.75a.38.38,0,0,0,.24-.11.4.4,0,0,0,0-.57c-1.27-1.28-5.5-3.36-8.44-2.75a.39.39,0,0,0-.31.47.4.4,0,0,0,.47.32c2.75-.57,6.7,1.51,7.71,2.53A.44.44,0,0,0,379.68,437.75Z" style="fill:#f0f0f0"></path><path d="M382.66,435.11a.5.5,0,0,0,.24-.12.41.41,0,0,0,0-.57c-1.31-1.26-5.58-3.26-8.5-2.57a.39.39,0,0,0-.3.48.4.4,0,0,0,.48.3c2.73-.63,6.73,1.37,7.76,2.37A.44.44,0,0,0,382.66,435.11Z" style="fill:#f0f0f0"></path><path d="M385.28,432.72a.4.4,0,0,0,.26-.68c-1.25-1.31-5.47-3.45-8.4-2.89a.4.4,0,1,0,.14.78c2.76-.51,6.69,1.63,7.68,2.67A.38.38,0,0,0,385.28,432.72Z" style="fill:#f0f0f0"></path><path d="M388.08,430a.44.44,0,0,0,.24-.11.41.41,0,0,0,0-.57,11.82,11.82,0,0,0-9.1-2.85.4.4,0,0,0,.15.79,11.14,11.14,0,0,1,8.36,2.61A.42.42,0,0,0,388.08,430Z" style="fill:#f0f0f0"></path><path d="M407,423.83a3.5,3.5,0,0,0,3.1,1.77c1.83-.29,6-2.14,9-6.74s3.13-6.46,3.14-9.3-.14-5.6,1-7.82,2.65-5.31,2.58-6.33-2.53-3-2.53-3Z" style="fill:#263238"></path><path d="M412.61,385.31s-.51-.66.14-.3,2.8,1.93,4.12,2.57a35.85,35.85,0,0,1,7.19,5.64c1,1.27-1.26,5.52-2.1,7.92a22.66,22.66,0,0,0-1.1,7.8,16.7,16.7,0,0,1-3.69,10c-2.73,3.18-6.82,5.9-9,5.46-2.7-.53-5.31-1.94-3.48-8.54.34-1.25,1.06-5.4,1.3-7,.37-2.46.72-5.27-.61-7.5a22.36,22.36,0,0,0-1.87-2.48A2.07,2.07,0,0,1,403,398a2.1,2.1,0,0,1,.62-1.6,26.31,26.31,0,0,1,2.72-2.33,8.08,8.08,0,0,1,1.73-1.28,3,3,0,0,1,2.08-.3c.3.08.58.21.88.27,1.86.37.82-2.27.64-3.19-.09-.46.59-1.61.61-2.08s.81-.69.77-1.11A1.36,1.36,0,0,0,412.61,385.31Z" style="fill:#37474f"></path><path d="M420.86,408.94a31.18,31.18,0,0,1,.18-3.63h0s-2.29,6.75-5.74,7.7c-2.22.61-2.84-1.11-3.2-1.47s-5.75,1.76-7.11,3h0c-.12.57-.22,1.05-.3,1.34-1.83,6.6.78,8,3.48,8.54,2.18.44,5.55-1.19,9.05-5.32A17.2,17.2,0,0,0,420.86,408.94Z" style="fill:#455a64"></path><path d="M411.31,410.19c-1.32,3.95.3,3.16,1.12,2.43s1.95-6.91,2.12-12c.18-5.28-.13-10.27-.05-12.22,0-.72,0-1.55,0-2.3-.72-.47-1.32-1.17-1.68-1.38-.64-.36-.85-.06-.85-.06l.83,1.26c0,.42-.43,1.15-.58,1.55a4.91,4.91,0,0,0-.48,2.11,15.15,15.15,0,0,1,.45,2.58C413.25,397.53,412.63,406.24,411.31,410.19Z" style="fill:#263238"></path><path d="M412.17,412.05a.36.36,0,0,0,.09-.24.37.37,0,0,0-.37-.39c-1.73,0-5.83,1.15-7.43,3.52a.4.4,0,0,0,.1.54.38.38,0,0,0,.53-.11c1.5-2.21,5.42-3.21,6.78-3.19A.4.4,0,0,0,412.17,412.05Z" style="fill:#f0f0f0"></path><path d="M412.9,408.24a.35.35,0,0,0,.1-.24.39.39,0,0,0-.37-.4c-1.72-.07-5.84,1-7.5,3.37a.38.38,0,0,0,.09.54.38.38,0,0,0,.53-.09c1.55-2.17,5.49-3.11,6.85-3.05A.4.4,0,0,0,412.9,408.24Z" style="fill:#f0f0f0"></path><path d="M413.27,404.46a.36.36,0,0,0,.09-.24.37.37,0,0,0-.37-.39c-1.73,0-5.83,1.15-7.43,3.53a.38.38,0,0,0,.1.53.37.37,0,0,0,.53-.1c1.5-2.21,5.42-3.22,6.78-3.2A.37.37,0,0,0,413.27,404.46Z" style="fill:#f0f0f0"></path><path d="M413.56,401.09a.33.33,0,0,0,.1-.24.38.38,0,0,0-.36-.4c-1.72-.11-5.88.95-7.57,3.24a.38.38,0,0,0,.61.46c1.6-2.14,5.55-3,6.92-2.94A.39.39,0,0,0,413.56,401.09Z" style="fill:#f0f0f0"></path><path d="M413.26,397.54a.38.38,0,0,0-.25-.64,10.69,10.69,0,0,0-8,3.72.39.39,0,0,0,.08.54.39.39,0,0,0,.54-.09,10.05,10.05,0,0,1,7.35-3.41A.38.38,0,0,0,413.26,397.54Z" style="fill:#f0f0f0"></path></g><g id="freepik--Top--inject-20"><g id="freepik--Arm--inject-20"><path d="M372.48,247.35c.52-1.64,2.47-2.64,4.57-4.41a15.59,15.59,0,0,0,3.8-6c.28-.93,1.81-2.55.14-3a2.71,2.71,0,0,0-2.47.62c-.31.24-2.85,3.65-2.65,2,.66-2.6,3.58-6.26,4.7-9.08.31-1.13.9-3-.24-3.78-.84-.37-1.58.42-2,1.08-1.11-.83-2.42-.34-3.49.23a4.69,4.69,0,0,1-1.44-.1,2.53,2.53,0,0,0-2.51,1.6c-3.44-.84-5.41,5.19-6.45,7.67-.35.93-.69,1.86-1.05,2.79-1.4,3.59-.75,3.86-1.35,6.62-.68,2-1.61,3.72-4.61,10.59a68.82,68.82,0,0,0-4.24,11.37c-1.23,4.32.7,6.22,6.92,11.94,10,9.24,12.44,10.77,16.68,18.49l11.66-18.89a19.07,19.07,0,0,1-7.53-3.43c-8.23-5.56-10.37-7.46-12.46-9.4C368.46,264.3,371.61,250.6,372.48,247.35Z" style="fill:#ffa8a7"></path></g><path d="M368.57,264.23s.59-3,1.43-6.57c0,0-2.35,1.4-7-.19s-4.94-4.63-4.94-4.63c-.2.44-.4.89-.61,1.38-2.95,6.75-3.51,8.3-4.4,11.45-1.23,4.31.72,6.22,6.93,11.94C369,286,372,288.14,375.61,294.16h0s1.39-5.41,4.31-8.3a17.39,17.39,0,0,1,5.15-3.19l3.51-5.65a23,23,0,0,1-7.6-3.49A109.92,109.92,0,0,1,368.57,264.23Z" style="fill:#37474f"></path><g id="freepik--arm--inject-20"><path d="M368.81,240.75a8,8,0,0,1,1.15-1.84,5.66,5.66,0,0,1,3.78-2.15c.17,0,.1.18,0,.24-.57.4-1.2.7-1.76,1.11a8.41,8.41,0,0,0-1.5,1.42,7.5,7.5,0,0,0-1,1.64,7.62,7.62,0,0,0-.33.91,2.23,2.23,0,0,1-.34.89c-.11.12-.38.16-.43,0A3.61,3.61,0,0,1,368.81,240.75Z" style="fill:#f28f8f"></path></g><g id="freepik--Chest--inject-20"><path d="M422.3,302.17c2.93-11-.56-9.19-1.44-12.8s-1.78-7.61-5.21-9.21c0,0-10.56-1.77-11.91-2a98.29,98.29,0,0,0-11.8-1.09c-3-.06-4.51-.49-7.19,1.35s-7.57,5.63-9.25,16.38c-2.37,15.1-3.93,21.66-4.79,31.27,3,8.79,26.37,15.9,49.33,7.95a113.9,113.9,0,0,1-1.27-13.26C418.77,316.74,420.29,309.72,422.3,302.17Z" style="fill:#BA68C8"></path><path d="M420.87,289.37c-.87-3.55-1.63-7.65-5.07-9.25l-1.65-.26h0a26.27,26.27,0,0,0-3.51-.75c-3.05-.48-6.16-.8-6.9-.91a100.72,100.72,0,0,0-11.8-1.13c-3-.06-4.71-.45-7.39,1.39s-7.21,5.3-8.88,15.42c.22-.78,1.58-5.38,4.25-8,2.92-2.9,9.2-4.67,9.2-4.67s-.24,2,2.54,3.78c3.24,2,11.14,1.4,14.53-1.08l6.75,8.72s3.84,9.33,9.36,9.56C425.23,291.18,421.74,293,420.87,289.37Z" style="fill:#455a64"></path></g><g id="freepik--arm--inject-20"><path d="M442.5,263.66c-.07-1-.16-2.08-.26-3.11-.32-3.36-.76-6.71-1.22-10.05-.18-1.32-.32-2.62-.45-3.93a23.59,23.59,0,0,1,.63-6,35.79,35.79,0,0,0,.47-6.62,3.87,3.87,0,0,0-.3-1.69,4.26,4.26,0,0,0-2.57-1.76l-4.59-1.67a13.85,13.85,0,0,0-3.43-.93,1.73,1.73,0,0,0-1.44.36,2,2,0,0,0-.4,1,6,6,0,0,0-.13,2.79c.12.57.44,1.82.19,2.08-1,.54-1.8-3.75-3.62-4.14-.87-.59-2.35,0-1.81,1.17.57,2,.86,3.38,1.48,6.06s3.64,5,4.08,7.48c.6,3.43-.58,17.94-.58,17.94s-2.27,4.11-5.91,10c-3.29,5.34-5.23,6.78-8.41,7.26-2.45,3.65-2.7,12.35.87,18.06,2.6,4.17,4.36,4.73,7.2,4.19,1.8-4.63,3.85-6.72,7.34-11.75,5.44-7.83,9.11-13.26,11.45-18C442.85,268.92,442.82,267.77,442.5,263.66Z" style="fill:#ffa8a7"></path><path d="M436.63,237.67a2,2,0,0,0-.14-.34,3.8,3.8,0,0,0-1.1-1.16,25.57,25.57,0,0,0-3.94-2.34c-.31-.15-3.84-1.9-3.91-1.5l-.13.95a1.84,1.84,0,0,0,.64,2.19,1,1,0,0,1,.33.29,1,1,0,0,1,.06.46,2.06,2.06,0,0,0,1.93,2,.46.46,0,0,1,.3.06.51.51,0,0,1,.14.35,1.9,1.9,0,0,0,1.12,1.36,8.46,8.46,0,0,1,1,.4,4.39,4.39,0,0,1,.73.7,1.8,1.8,0,0,0,2.1.46,2.39,2.39,0,0,0,.82-1.65A4.64,4.64,0,0,0,436.63,237.67Z" style="fill:#f28f8f"></path><path d="M430.23,235.26a2.87,2.87,0,0,1,2,.55,5.72,5.72,0,0,1,1.64,1.5,4.66,4.66,0,0,1,.74,4.51c0,.11-.16.1-.18,0-.09-.66-.08-1.33-.22-2a5.74,5.74,0,0,0-.9-2.13,5.63,5.63,0,0,0-3.13-2.19C430.08,235.48,430.13,235.29,430.23,235.26Z" style="fill:#f28f8f"></path><path d="M441.26,272.5c1.89-3.41,1.76-3.78,1.32-8.55-.12-1.33-.29-2.9-.41-4.12-2.06,1.34-10.48,1.73-13.27-2.17h0c-.18,2.84-.45,4.89-.45,4.89s-2.38,4.08-6,10c-3.29,5.34-5.1,6.85-8.28,7.33-2.6,3.58-2.89,12.41.68,18.12,2.6,4.17,4.63,4.73,7.47,4.19,1.8-4.63,4-6.64,7.47-11.67A212,212,0,0,0,441.26,272.5Z" style="fill:#37474f"></path></g><path d="M419.12,153.41a7,7,0,0,0,2.18,2.5c1.58,1.15-3.14,4.08-4.33,3.41s.24-5.84.24-5.84Z" style="fill:#BA68C8"></path><path d="M439.21,120.28c.49,13-7.88,26.85-21.22,31.21a31,31,0,0,1-19.09-14.72A32,32,0,0,1,394.48,122C394,109,403,98.08,416,97.59a21.88,21.88,0,0,1,12.56,3.31A23.64,23.64,0,0,1,439.21,120.28Z" style="fill:#BA68C8"></path><path d="M439.21,120.28c.49,13-7.88,26.85-21.22,31.21a31,31,0,0,1-19.09-14.72h0c9.72,12.55,26.67,5.48,32.86-6.07s.18-25.21-3.24-29.79h0A23.64,23.64,0,0,1,439.21,120.28Z" style="opacity:0.1"></path><path d="M419.69,150.87a8.86,8.86,0,0,1-3.47.13,2.25,2.25,0,0,0,.65,2.28,1.88,1.88,0,0,0,2.82-2.41Z" style="fill:#BA68C8"></path><path d="M419.69,150.87a8.86,8.86,0,0,1-3.47.13,2.25,2.25,0,0,0,.65,2.28,1.88,1.88,0,0,0,2.82-2.41Z" style="opacity:0.2"></path><path d="M421.14,156.45c.2.18-.46,1-1.85,1.85s-2,.73-2.11.55.83-1.17,1.88-1.79S420.93,156.25,421.14,156.45Z" style="opacity:0.2"></path><path d="M396.26,121.89a30.31,30.31,0,0,0,1,6.64,1.16,1.16,0,0,0,1.29.85l.13,0a1.17,1.17,0,0,0,.82-1.42,28.16,28.16,0,0,1-.93-6.14,20.5,20.5,0,0,1,3.05-12.1,21.78,21.78,0,0,1,9.51-7.44,1.15,1.15,0,1,0-.73-2.19,24.15,24.15,0,0,0-10.72,8.36A22.84,22.84,0,0,0,396.26,121.89Zm2.46,10.29a1.18,1.18,0,0,0,2.35-.09,1.17,1.17,0,0,0-1.21-1.13A1.18,1.18,0,0,0,398.72,132.18ZM413.29,100a1.18,1.18,0,0,0,2.35-.09,1.18,1.18,0,1,0-2.35.09Z" style="fill:#fff;opacity:0.2"></path><path d="M417.55,156.51a6.59,6.59,0,0,1,.35-1.85.3.3,0,0,0-.19-.36.28.28,0,0,0-.36.18,7,7,0,0,0-.38,2s0,.05,0,.08a.28.28,0,0,0,.27.21A.28.28,0,0,0,417.55,156.51ZM417,157.7a.27.27,0,0,0,.39,0,.28.28,0,0,0,0-.4.29.29,0,0,0-.4,0A.28.28,0,0,0,417,157.7Z" style="fill:#fff;opacity:0.30000000000000004"></path><path d="M464.43,288.47a.58.58,0,0,1-.36-.15A.61.61,0,0,1,464,288c-.58-4.07-1.06-7.88-3.84-11.08-4.33-5-10-8.62-14.26-13.64a17.5,17.5,0,0,1-2.65-4.16c-2-4.28-2.45-9.12-3.43-13.82-.65-3.1-1.9-6.87-4.55-8.82a40.33,40.33,0,0,1-4.44-3.62l-.14-.13a14.15,14.15,0,0,1-3.45-5.19,40.59,40.59,0,0,1-1.87-6.5c-2.55-13.71,2-27.54.68-41.32a47.41,47.41,0,0,0-3.07-12.87c-1.21-3-2.32-5.53-3.81-8.47-.18-.34-.36-.68-.54-1l.47-.29.21-.13c.21.29.4.58.61.89l.05.07a54.06,54.06,0,0,1,3.84,7.44,44.51,44.51,0,0,1,3.19,9.92c1.26,6.81.78,13.8.15,20.66-.63,7-1.5,14.11-.75,21.16a38,38,0,0,0,1.27,6.59,12.78,12.78,0,0,0,1.07,3.06,13.61,13.61,0,0,0,1.81,2.58c.24.25.46.5.72.74l2.77,2.58a37.07,37.07,0,0,1,4.3,4.29,6.5,6.5,0,0,1,1.46,2.45c.22,1.13.54,2.25.81,3.37.37,1.5.71,3,1,4.52,1,5.82,2,10.39,5.24,14.61,4.52,6,11.49,9.58,15.82,15.66a15.74,15.74,0,0,1,2.59,5.86C465.41,284.43,466.19,288.71,464.43,288.47Z" style="fill:#e0e0e0"></path><path d="M443.85,173.73a7,7,0,0,1-2.28,2.41c-1.62,1.09,3,4.2,4.2,3.57s0-5.84,0-5.84Z" style="fill:#BA68C8"></path><path d="M443.85,173.73a7,7,0,0,1-2.28,2.41c-1.62,1.09,3,4.2,4.2,3.57s0-5.84,0-5.84Z" style="fill:#fff;opacity:0.6000000000000001"></path><path d="M425,139.87c-1,13,6.88,27.13,20.05,32a31,31,0,0,0,19.62-14,32,32,0,0,0,5-14.63c1-13-7.6-24.18-20.57-25.15a21.75,21.75,0,0,0-12.68,2.83A23.67,23.67,0,0,0,425,139.87Z" style="fill:#BA68C8"></path><path d="M425,139.87c-1,13,6.88,27.13,20.05,32a31,31,0,0,0,19.62-14,32,32,0,0,0,5-14.63c1-13-7.6-24.18-20.57-25.15a21.75,21.75,0,0,0-12.68,2.83A23.67,23.67,0,0,0,425,139.87Z" style="fill:#fff;opacity:0.6000000000000001"></path><path d="M425,139.87c-1,13,6.88,27.13,20.05,32a31,31,0,0,0,19.62-14h0c-10.18,12.18-26.85,4.48-32.61-7.29s.76-25.2,4.35-29.65h0A23.67,23.67,0,0,0,425,139.87Z" style="fill:#BA68C8;opacity:0.30000000000000004"></path><path d="M443.37,171.16a8.63,8.63,0,0,0,3.46.26,2.28,2.28,0,0,1-.73,2.26,1.88,1.88,0,0,1-2.73-2.52Z" style="fill:#BA68C8"></path><path d="M441.72,176.69c-.21.17.41,1.06,1.78,1.92s1.95.8,2.07.63c.23-.32-.77-1.2-1.8-1.86S441.93,176.5,441.72,176.69Z" style="fill:#BA68C8;opacity:0.30000000000000004"></path><path d="M464.94,129.5a24.12,24.12,0,0,0-10.39-8.75,1.15,1.15,0,1,0-.81,2.16,21.87,21.87,0,0,1,9.22,7.78,20.6,20.6,0,0,1,2.6,12.22,28.79,28.79,0,0,1-1.16,6.1,1.15,1.15,0,0,0,.77,1.44l.12,0a1.15,1.15,0,0,0,1.32-.8,29.67,29.67,0,0,0,1.25-6.6A22.85,22.85,0,0,0,464.94,129.5Zm-1,22.51a1.17,1.17,0,1,0,1.09,1.26A1.18,1.18,0,0,0,463.93,152Zm-13.35-32.67a1.18,1.18,0,1,0,1.08,1.26A1.19,1.19,0,0,0,450.58,119.34Z" style="fill:#fff;opacity:0.2"></path><path d="M445.58,177.18a.29.29,0,0,0,.28-.21.19.19,0,0,0,0-.08,7.09,7.09,0,0,0-.29-2,.29.29,0,0,0-.56.15,6.79,6.79,0,0,1,.28,1.87A.28.28,0,0,0,445.58,177.18Zm.19.51a.28.28,0,1,0-.4.4.27.27,0,0,0,.39,0A.28.28,0,0,0,445.77,177.69Z" style="fill:#fff;opacity:0.30000000000000004"></path><path d="M427.24,226c.08.47.18.95.3,1.43a10.9,10.9,0,0,1,.75-.93,5.23,5.23,0,0,1,.39-.42c-.05-.3-.1-.62-.13-.92a22.31,22.31,0,0,1,.2-6.32c1.33-7.69,6-14.18,9.51-21a40.1,40.1,0,0,0,3.9-10.76c.52-2.76.82-5.58,1.56-8.28.12-.4.23-.78.36-1.17l-.31-.2a6.32,6.32,0,0,0-.72-.41,8.68,8.68,0,0,0-.45,1c-1.27,3.17-1.38,6.83-2.15,10.11-1.8,7.69-6.64,14.15-10,21.19a33.35,33.35,0,0,0-3.38,11.05A21,21,0,0,0,427.24,226Z" style="fill:#e0e0e0"></path><path d="M440.09,239.32a12.74,12.74,0,0,0,1.36-4.15c.07-.94.15-1.88.14-2.82a8,8,0,0,0-.47-2.26A5.28,5.28,0,0,0,440,228a3,3,0,0,0-2.17-1,.73.73,0,0,1-.36,0,.75.75,0,0,1-.37-.41,4.43,4.43,0,0,0-1.36-1.58,2.37,2.37,0,0,0-2-.34.68.68,0,0,1-.34.06c-.22,0-.32-.28-.44-.47a1.74,1.74,0,0,0-1.92-.64,4.41,4.41,0,0,0-1.79,1.18,33.94,33.94,0,0,0-2.67,3.07,2.21,2.21,0,0,0-.46.78c-.28.95.28,2.41.52,3.32a4.52,4.52,0,0,0,1.82,2.19c.62,2.24,1.45,2.48,2.46,2.71.46,2.1,1.88,2.12,2.74,2.6.45,1.36,1.76,1.85,2.22.86a6.41,6.41,0,0,0,.5-2.06c0-.27,0-.73.13-1,.65-.88,1.85-.27,2.41.37a16.49,16.49,0,0,1,1.07,1.64A.11.11,0,0,0,440.09,239.32Z" style="fill:#ffa8a7"></path><path d="M428,231a4.1,4.1,0,0,1,1.14-2.58c.81-.86,1.62-1.7,2.48-2.51a1.3,1.3,0,0,1,.67-.42c.05.1,0,.22-.11.3-.39.43-.8.84-1.19,1.26s-.95,1.05-1.41,1.6a8.63,8.63,0,0,0-.71,1,3.19,3.19,0,0,0-.48,1.63c0,.91.05,1.81,0,2.71,0,0,0,0-.05,0A7.91,7.91,0,0,1,428,231Z" style="fill:#f28f8f"></path><path d="M431.4,231.56a23.43,23.43,0,0,1,2-2c.75-.74,1.52-1.47,2.32-2.18.1-.08.2.14.13.21-.64.72-1.29,1.43-2,2.11s-1.34,1.3-1.95,2a4,4,0,0,0-1.13,2.07c-.1.72,0,1.41-.06,2.12,0,.1-.11,0-.12,0A5.32,5.32,0,0,1,431.4,231.56Z" style="fill:#f28f8f"></path><path d="M433.17,236.82c-.08-.43-.15-.88-.21-1.32a2.59,2.59,0,0,1,.36-1.95A10,10,0,0,1,435,231.9a22.66,22.66,0,0,1,2.24-1.65c.08-.05.18.15.11.2-.68.51-1.32,1.06-1.95,1.62a15.11,15.11,0,0,0-1.63,1.57,2,2,0,0,0-.48,1,5.89,5.89,0,0,0,.16,2.09c.14.76.19,1.54.26,2.31,0,0,0,.06,0,.06a3.49,3.49,0,0,1-.21-.83c-.06-.31-.13-.61-.18-.92S433.2,237,433.17,236.82Z" style="fill:#f28f8f"></path><g id="freepik--Head--inject-20"><path d="M384.7,237.76a5.15,5.15,0,0,0,0,3.86,1.35,1.35,0,0,1,.11.45,1.27,1.27,0,0,1-.18.56,10.1,10.1,0,0,0,0,8.32c1.88,4.41,5.94,7.46,9.58,10.35l10.25,8.14c.74.59,1.52,1.15,2.27,1.74,1,.79,1.54,1.22,2.43-.1,2.34-3.47,5.62-6.2,8.2-9.49,1.84-2.33,3.18-4.36,3.25-7.44a11.57,11.57,0,0,0-2.54-7.57,2.87,2.87,0,0,1-.62-1,2.68,2.68,0,0,1-.05-.75,11.05,11.05,0,0,0-.43-4,9,9,0,0,0-3.82-4.37c-4.78-3.09-10-2.37-15.38-2.79a16.44,16.44,0,0,1-5.36-1.2c-1.49-.66-3.2-.76-3.8,1.14a5.9,5.9,0,0,0-.09,2.51,3,3,0,0,0-3.69,1.31Z" style="fill:#263238"></path><path d="M414,268.19a6.72,6.72,0,0,0,3.49-2.8c1.16-1.75,1.42-4.51.86-5.7a4,4,0,0,0-3.86-2.27,3.3,3.3,0,0,0-2.7,1.74c-.81,1.12-2.34,2.87-3.16.57-.51-1.43.31-3.08-.58-4.44a11,11,0,0,1-.78-1,3,3,0,0,1-.12-1.9c.5-3,2.58-6.8-1.5-8.21-3.43-1.19-7.36-.14-10.75-1.44a10.76,10.76,0,0,0-3.33-1.13,5,5,0,0,0-3.31,1.45,12.66,12.66,0,0,0-4.22,6.86c-.26,1.41.16,3.17-.31,4.51a15.49,15.49,0,0,0-1.64,4.53,11.77,11.77,0,0,0,1.19,9.33,13.85,13.85,0,0,0,9.16,5.91l-.43,5c-6.06,5.17,9.78,8.49,15.91,1l1.8-13.36A4.83,4.83,0,0,0,414,268.19Z" style="fill:#ffa8a7"></path><path d="M392.47,274.16A22.45,22.45,0,0,0,403,273.4a9.85,9.85,0,0,0,5-4.62,6.29,6.29,0,0,1-3.49,5.88c-4.72,2.52-12.29,1.64-12.29,1.64Z" style="fill:#f28f8f"></path><path d="M398.25,263.41c-.87-1.06-1.86,0-4,.17s-3.27-1.09-3.82.19c-.46,1.08.62,3.58,4.18,3.6C397.63,267.39,399,264.36,398.25,263.41Z" style="fill:#b16668"></path><path d="M394.23,263.58a27.88,27.88,0,0,0,3-.61l0,1a4.73,4.73,0,0,1-2.41.71,6.31,6.31,0,0,1-3.34-.55l-.18-.91A15.25,15.25,0,0,0,394.23,263.58Z" style="fill:#fafafa"></path><path d="M394.59,267.37a6,6,0,0,1-1.91-.3,4.15,4.15,0,0,1,4.39-2,4.06,4.06,0,0,1,1,.34A3.91,3.91,0,0,1,394.59,267.37Z" style="fill:#f28f8f"></path><path d="M400.15,252.21l3.68,1.89a2.17,2.17,0,0,0-.93-2.86A2,2,0,0,0,400.15,252.21Z" style="fill:#263238"></path><path d="M401.84,256.77a1.69,1.69,0,1,1-1.51-1.86A1.69,1.69,0,0,1,401.84,256.77Z" style="fill:#263238"></path><path d="M390.57,254.27a1.69,1.69,0,1,1-1.51-1.86A1.7,1.7,0,0,1,390.57,254.27Z" style="fill:#263238"></path><path d="M387.05,250.72l4.06-.95a2,2,0,0,0-2.43-1.58A2.18,2.18,0,0,0,387.05,250.72Z" style="fill:#263238"></path><polygon points="395.94 253.53 393.52 260.87 389.65 258.29 395.94 253.53" style="fill:#f28f8f"></polygon></g></g></g></g><g id="freepik--character-2--inject-20"><g id="freepik--character--inject-20"><g id="freepik--bottom--inject-20"><path d="M269.88,422.45a.66.66,0,0,1,0-.14,20.44,20.44,0,0,0-1.31-5.14c-.78-2.18-1.6-4.34-2.29-6.55-.82-2.62-1.45-5.3-2-8a18.33,18.33,0,0,1-.37-3.69c0-1.29-.31-2.4-.36-3.69-.13-3.48-.89-28.34-1.59-36.85-.78-9.41-.64-12.08-3.72-32.79V295.29H228.7c-1.81,8.83-1,15.06.19,21.23,2.42,12.8,6.47,22.51,10.46,37.44a103.89,103.89,0,0,0,2.25,15.25c1.62,6.24,3.67,12.08,5.42,18.27,1,3.49,2.15,6.34,3.17,10.08.59,2.15,1.27,4.27,1.85,6.41a40.06,40.06,0,0,1,.87,7.08c.23,2.71.64,5.4,1.08,8.08a18.72,18.72,0,0,0,2,6.58,7.55,7.55,0,0,0,2.18,2.42,8,8,0,0,0,2,1,9.1,9.1,0,0,0,4.53.47,6.32,6.32,0,0,0,3.92-2.22A7.2,7.2,0,0,0,269.88,422.45Z" style="fill:#ffbda7"></path><path d="M323.53,389.64c-.74-1.43-2.52-1.9-4.09-2.23L312,385.83a27.93,27.93,0,0,1-6.66-2,9.3,9.3,0,0,1-5-5.55c-.66-2.36-1.9-9.24-3.6-19.33-1.36-8.14-2.21-13.24-3.09-18.29a48.43,48.43,0,0,0-2.33-8.95c-5.61-14.88-10.57-28.23-14-36.44H252.89l6.69,29.52,13.93,20.87s-.11,4.08,3.3,12.76c1.71,4.33,8.28,17.09,10,22.92.74,2.58,1.21,5.23,1.75,7.87a7.32,7.32,0,0,0,.93,2.72c1.17,1.72,3.47,2.14,5.52,2.44a44.18,44.18,0,0,1,8.15,1.77,42.69,42.69,0,0,0,5.64,1.94c3.86.78,7.88-.47,11.32-2.38a8.78,8.78,0,0,0,3-2.41A3.65,3.65,0,0,0,323.53,389.64Z" style="fill:#ffbda7"></path><path d="M227.54,293.22c-3.69,14-1.7,19.75,2.46,35.92,2.77,10.77,4.09,15.75,4.09,15.75a35.92,35.92,0,0,0,18.21-.16c9.07-2.33,10.41-4.33,10.41-4.33l-2.36-12.62,5.89,11.39s6.3-.64,14.66-5.4,8.23-9.09,8.23-9.09l-11.82-31.46Z" style="fill:#37474f"></path><path d="M231.83,305.94a24.29,24.29,0,0,0-.09,8.75,87.73,87.73,0,0,0,1.75,9.28c1.52,6.52,3.08,13,4.62,19.53.2.85.41,1.71.61,2.56a13.76,13.76,0,0,0,1.36.26c-.31-1.33-.63-2.66-.94-4q-1.45-6.16-2.92-12.32c-.93-3.92-1.93-7.83-2.72-11.8-.37-1.91-.67-3.85-.88-5.8-.23-2.11-.21-4.24-.35-6.36C232.26,305.87,231.9,305.64,231.83,305.94Z" style="fill:#263238"></path><path d="M273.16,304.86c-3.11,8.9-15,12.84-15,12.84l2.15,10.08,5.89,11.39a9.33,9.33,0,0,0,1.32-.14h0l-5.16-10.84-.6-8.67A17.83,17.83,0,0,0,273.16,304.86Z" style="fill:#263238"></path><path d="M233.4,343.34c6.65,2.5,20.69.71,29.19-4.73l1.19,5.46c-6.46,5.87-22.9,7.23-29,4.29Z" style="fill:#455a64"></path><path d="M288.75,323.17c-3.24,6.32-14.1,11.86-24.05,13.57l2.43,4.77c8.73,0,21.3-6.5,23.85-12.79Z" style="fill:#455a64"></path><path d="M289.05,394a3.1,3.1,0,0,0,2.5,2.82,17.49,17.49,0,0,0,6.37.78A12.27,12.27,0,0,1,304,399c1.66.87,3.72,2.35,9.58,1.24s8.17-2.76,9.77-3.93a3.59,3.59,0,0,0,1.5-4.52Z" style="fill:#37474f"></path><path d="M292.3,384.11a2.92,2.92,0,0,0,1.64,1.36,18.31,18.31,0,0,1-.83-2.57,3.1,3.1,0,0,1,.06-2.43,3.63,3.63,0,0,1,1-1,20.57,20.57,0,0,1,3.25-2c.62-.29,1.51-1,2.24-.77.46.14.58.58.74,1a6.26,6.26,0,0,0,1.19,2.08,7.31,7.31,0,0,0,1.83,1.22A46.43,46.43,0,0,0,314.18,385c4.31,1,9.35-.08,10.67,6.81-.36,2-2.21,4.19-7,5.84s-8.19,1.91-11.36.9-5.37-2.42-8.18-2.58-6.32,0-9.25-1.92a14.27,14.27,0,0,1-1.81-5.93c-.05-.68-.13-1.23-.16-1.91a9.81,9.81,0,0,0-.95-3.46,1.45,1.45,0,0,1-.2-.8c0-.28.11-.51.58-.57l.42,1.2a4.09,4.09,0,0,0,1.66.35,19.42,19.42,0,0,1,2.15-.15C291.54,382.86,291.74,383.35,292.3,384.11Z" style="fill:#455a64"></path><path d="M308.76,390.07s2.22-4.09,6.14-4.93l-.72-.16a46.43,46.43,0,0,1-10.76-3.93,7.31,7.31,0,0,1-1.83-1.22,6.26,6.26,0,0,1-1.19-2.08c-.16-.41-.28-.85-.74-1-.73-.21-1.62.48-2.24.77a20.57,20.57,0,0,0-3.25,2,3.63,3.63,0,0,0-1,1,3.1,3.1,0,0,0-.06,2.43,18.31,18.31,0,0,0,.83,2.57C295.49,387.73,308.76,390.07,308.76,390.07Z" style="fill:#37474f"></path><path d="M315.84,385.09a.92.92,0,0,0-.25-.19,1.38,1.38,0,0,0-.6-.16,4.79,4.79,0,0,0-2.2.7,10.3,10.3,0,0,0-2.25,1.62,11.53,11.53,0,0,0-1.71,2,13.18,13.18,0,0,0-.68,1.14c-.21.4-.5.79-.32,1.24.07.18.37.5.61.37s.47-.61.67-1a11.44,11.44,0,0,1,.63-1,12.44,12.44,0,0,1,1.6-1.87,14.58,14.58,0,0,1,1.86-1.46,4.67,4.67,0,0,1,2.56-1.07h.1a.15.15,0,0,0,.07-.16A.37.37,0,0,0,315.84,385.09ZM310,383.8h.11a.14.14,0,0,0,.07-.15.28.28,0,0,0-.09-.16,1.16,1.16,0,0,0-.25-.2,1.24,1.24,0,0,0-.6-.15,4.64,4.64,0,0,0-2.21.7,9.88,9.88,0,0,0-2.24,1.61,11.13,11.13,0,0,0-2.39,3.12c-.21.4-.51.79-.33,1.24.08.19.38.5.62.37s.46-.61.67-1,.4-.68.63-1a12,12,0,0,1,3.46-3.32A4.5,4.5,0,0,1,310,383.8Zm-7.52-.89a4.47,4.47,0,0,1,2.55-1.07h.1a.13.13,0,0,0,.08-.15.25.25,0,0,0-.1-.16.82.82,0,0,0-.25-.2,1.23,1.23,0,0,0-.59-.15,4.6,4.6,0,0,0-2.21.7,10.16,10.16,0,0,0-2.25,1.61,11.6,11.6,0,0,0-1.71,2,9.88,9.88,0,0,0-.67,1.13c-.21.4-.51.79-.33,1.24.08.19.37.5.61.37s.47-.61.67-1,.41-.68.64-1a12.36,12.36,0,0,1,1.6-1.87A13.08,13.08,0,0,1,302.5,382.91Z" style="fill:#fafafa"></path><path d="M253.65,421.43c.7,3.88,1.54,6.06,3.61,8.43s5.78,2.73,9.06,1.72a6.49,6.49,0,0,0,4.62-7.15,35.28,35.28,0,0,0-1.86-7.33C265.61,422.73,260.15,423.38,253.65,421.43Z" style="fill:#37474f"></path><path d="M263.23,398.42c-.05.22-.43.27-.58.1a.42.42,0,0,1-.08-.22l-.45-2.11a1.75,1.75,0,0,0-.28-.72,1.5,1.5,0,0,0-1-.41,17.45,17.45,0,0,0-7.54,1.1c-.8.25-1.63.68-1.59,1.63a13.08,13.08,0,0,0,.55,3c.09.34-.09.33-.2.38s-.43,0-.61-.42c-.36-.84-.58-1.38-1.28-3.21a1.36,1.36,0,0,0-.56,1.23A4,4,0,0,0,250,400a32,32,0,0,1,2,8.09c.54,3.41.17,8.59,2,14.83s6.27,8.36,11.17,7.11,6-5.18,4.48-10.84-3.12-7.9-4.11-12.8c-.37-1.81-.69-3.63-1-5.46a36.91,36.91,0,0,1-.37-4.47,1.91,1.91,0,0,0-.16-.82c-.13-.24-.3-.47-.57-.41A14.21,14.21,0,0,1,263.23,398.42Z" style="fill:#455a64"></path><path d="M262.57,398.3l-.45-2.11a1.75,1.75,0,0,0-.28-.72,1.5,1.5,0,0,0-1-.41,17.45,17.45,0,0,0-7.54,1.1c-.8.25-1.63.68-1.59,1.63a13.08,13.08,0,0,0,.55,3c1.38,5.51,4,15.85,4,15.85s2.64-2.25,9-2Z" style="fill:#37474f"></path><path d="M265.85,414.21a20.77,20.77,0,0,0-5.73.41,19.73,19.73,0,0,0-2.75.8,5.44,5.44,0,0,0-2.32,1.27c-.18.22.15.65.4.6a15.84,15.84,0,0,0,2.65-1,20.49,20.49,0,0,1,2.54-.74,19.67,19.67,0,0,1,5.41-.44C266.73,415.19,266.35,414.24,265.85,414.21Zm-7.48-9.53a20.07,20.07,0,0,1,5.41-.45c.68,0,.31-.9-.2-.93a20.82,20.82,0,0,0-5.73.41,20,20,0,0,0-2.74.79,5.4,5.4,0,0,0-2.32,1.28c-.18.21.15.65.4.6a16.17,16.17,0,0,0,2.65-1A19.85,19.85,0,0,1,258.37,404.68Zm1.18,5.44a19.67,19.67,0,0,1,5.41-.44c.68,0,.31-.91-.2-.94a20.82,20.82,0,0,0-5.73.41,18.68,18.68,0,0,0-2.74.8,5.38,5.38,0,0,0-2.32,1.27c-.18.22.15.65.4.6a16.17,16.17,0,0,0,2.65-1A19.85,19.85,0,0,1,259.55,410.12Z" style="fill:#fafafa"></path></g><g id="freepik--top--inject-20"><path d="M276.65,262.4c.12-9.35,6.56-33.67,8.05-40.06,2.15-9.24,2.6-10.49-.75-15.5-4.38-6.53-9.77-12.46-14.72-18.55a36,36,0,0,1-4.39-5.91c-1-2-1.91-4.1-2.94-6.11-.9-1.77-2-3-4.15-2.59-1.51.32-1.92-.85-3.27-1-.93-.14-1.74.65-2.67.86a18.88,18.88,0,0,1-2.38,0,5.53,5.53,0,0,0-2,.7,2.87,2.87,0,0,0-1,.66,2.94,2.94,0,0,0-.24,2.44l1.26,6.37c.21,1,.33,2.6,1.09,3.35a8,8,0,0,0,2.14,1.13,20.27,20.27,0,0,1,5.9,3.75c4,3.91,14.45,22.55,14.45,22.55l-8.36,29.83Z" style="fill:#ffbda7"></path><path d="M254.41,181.18a3.38,3.38,0,0,0,1-4,9.76,9.76,0,0,0-2.69-3.48l-.29-.42a4.39,4.39,0,0,1-.61.21,18.88,18.88,0,0,1-2.38,0,5.53,5.53,0,0,0-2,.7,2.87,2.87,0,0,0-1,.66,2.94,2.94,0,0,0-.24,2.44l1.26,6.37c.21,1,.33,2.6,1.09,3.35a8,8,0,0,0,2.14,1.13l.19.09a17.24,17.24,0,0,1,3.82-3.66,3.26,3.26,0,0,0,.9-.79A1.91,1.91,0,0,0,254.41,181.18Z" style="fill:#f0997a"></path><path d="M277,263.14a97.26,97.26,0,0,1,2.47-17.47c1.29-5.8,3.51-15.18,3.51-15.18s-3,.32-7.52-2.56a17.81,17.81,0,0,1-6.38-8s-1.14,4-2.43,8.74-1.86,8-2.72,10.08-1.86,5.46-1.86,5.46Z" style="fill:#455a64"></path><path d="M255.11,240.42a9.15,9.15,0,0,1-6.44-2c-3.16,2.45-7.92,2.81-11.8,1.84a8.5,8.5,0,0,1-4.51-2.76,8.08,8.08,0,0,1-1.58-5.5,10.91,10.91,0,0,0-.05,5.53,9.48,9.48,0,0,1-3-8.9c.72-3.13,2.78-7.54,5.6-9.27-1.27-4.4-1.53-7.52,0-11s5.24-5.95,7.48-6.19c1.14-3.3,3.67-5.3,6.75-6.69A25,25,0,0,1,261,193.75a19.21,19.21,0,0,1,11.11,5.64c3.1,3.24,5.38,8,4.54,12.63-.52,2.83-2.18,4.66-3.91,6.77a1,1,0,0,0-.26.52,1,1,0,0,0,.37.68,15.52,15.52,0,0,1,4.21,7.78,9,9,0,0,1-2.55,8.19,7.81,7.81,0,0,0-.51-4.4,6.62,6.62,0,0,1-2.37,4.28c-4.19,3.49-8,3.19-11.71,2.4A7.68,7.68,0,0,1,255.11,240.42Z" style="fill:#37474f"></path><path d="M277.8,294.17s-.15-10-.31-20.13-.74-15.32-2-19.68c-2.08-7.15-5.72-12.56-11.53-15.58-2.56,3.18-8.57,2.71-14.4,2.55s-9.3-2.6-11-4.8c-2.82,1.58-13.11,15.83-12.77,19.85.58,7,1.83,12.14,2.15,23,.2,6.66-1,12-2,19.14C239.32,305.25,267.09,309.82,277.8,294.17Z" style="fill:#fff"></path><path d="M238.36,237.88c1.73,1.85,5.13,4.28,11.15,4.45l1.36,0c1.24,0,2.53.08,3.76.08,3.46,0,7.24-.3,9.51-2.42,4.93,2.8,8.33,7.59,10.37,14.61,1.29,4.43,1.83,9.69,2,19.41.14,9.05.27,18,.29,19.82C271,302,260.71,303.73,253,303.73A63.64,63.64,0,0,1,227,297.91c.17-1.15.35-2.26.52-3.33a76.27,76.27,0,0,0,1.42-15.27,146.38,146.38,0,0,0-1.37-16.06c-.3-2.33-.58-4.53-.79-7-.27-3.23,8.33-15.53,11.62-18.41m.16-1.35c-2.82,1.58-13.11,15.83-12.77,19.85.58,7,1.83,12.14,2.15,23,.2,6.66-1,12-2,19.14A64.64,64.64,0,0,0,253,304.73c9.9,0,19.43-2.78,24.76-10.56,0,0-.15-10-.31-20.13s-.74-15.32-2-19.68c-2.08-7.15-5.72-12.56-11.53-15.58-1.81,2.25-5.34,2.67-9.31,2.67-1.65,0-3.38-.07-5.09-.12-5.89-.16-9.3-2.6-11-4.8Z" style="fill:#f0f0f0"></path><path d="M243.35,223.66a1.71,1.71,0,0,1-.18.2c-1,.87-1.27-1.08-2.54-2.21a2.91,2.91,0,0,0-2.53-.62,3.7,3.7,0,0,0-3.17,2.62,5.48,5.48,0,0,0,4.24,6.63,4.42,4.42,0,0,0,4.61-1.61l0,13.24a12.41,12.41,0,0,0,10.61,7.39c9.67.48,9.36-5.52,6.8-8.18l-.11-4.35a11.34,11.34,0,0,0,6.51-1.94c4.6-3.19,5.14-8.58,5.24-10.91.13-2.87-1.18-5.78-1.39-6.69-.37-1.66,0-2.51-.24-4.29a16.56,16.56,0,0,0-.74-3.49c-5.6.12-13.53-6.29-23.7-1.22a11.11,11.11,0,0,1,0,6.11,11.49,11.49,0,0,1-3.45,5.18,6.84,6.84,0,0,1,.37,3.17A2.18,2.18,0,0,1,243.35,223.66Z" style="fill:#ffbda7"></path><path d="M254.05,220.12a3,3,0,1,1-3.36-2.51A3,3,0,0,1,254.05,220.12Z" style="fill:#ffa8a7"></path><path d="M273.45,219.58a3,3,0,1,1-3.36-2.52A3,3,0,0,1,273.45,219.58Z" style="fill:#ffa8a7"></path><path d="M246.08,229.55a11.9,11.9,0,0,0,5.21,5.27,23.38,23.38,0,0,0,9.81,2l.06,2.31c-3.25.24-8.48-.32-11.94-3.26A9.27,9.27,0,0,1,246.08,229.55Z" style="fill:#f0997a"></path><path d="M254.89,212.93l-3.81,2.17a2.31,2.31,0,0,1,.85-3.07A2.14,2.14,0,0,1,254.89,212.93Z" style="fill:#263238"></path><path d="M265.78,213.07l3.92,2a2.29,2.29,0,0,0-1-3A2.14,2.14,0,0,0,265.78,213.07Z" style="fill:#263238"></path><path d="M252.52,218.13a1.81,1.81,0,1,0,1.39-2.14A1.8,1.8,0,0,0,252.52,218.13Z" style="fill:#263238"></path><path d="M265.2,217.75a1.8,1.8,0,1,0,1.38-2.14A1.81,1.81,0,0,0,265.2,217.75Z" style="fill:#263238"></path><polygon points="259.87 215.1 260.71 223.25 264.95 221.61 259.87 215.1" style="fill:#f0997a"></polygon><path d="M256.34,224.72c1-.85,1.76.4,3.8.93s3.33-.42,3.61.91c.23,1.11-1.28,3.29-4.68,2.63C256.17,228.63,255.42,225.48,256.34,224.72Z" style="fill:#b16668"></path><path d="M260.14,225.65a26.42,26.42,0,0,1-2.76-1.17l-.14.93a4.57,4.57,0,0,0,2.17,1.14,6.1,6.1,0,0,0,3.28.11l.35-.83A15.16,15.16,0,0,1,260.14,225.65Z" style="fill:#fafafa"></path><path d="M259.07,229.19a5.53,5.53,0,0,0,1.88.07,4,4,0,0,0-3.81-2.71,4.09,4.09,0,0,0-1,.14A3.8,3.8,0,0,0,259.07,229.19Z" style="fill:#f28f8f"></path><g id="freepik--arm--inject-20"><g id="freepik--arm--inject-20"><path d="M220.08,206.09c6-8.73,11.21-16.8,12.26-18.83.46-.9.75-1.83,1.16-2.72a31,31,0,0,1,1.78-3.12q1.8-3,3.89-5.78a6.82,6.82,0,0,1,1.7-1.77,6.44,6.44,0,0,1,4.3-.56,2.73,2.73,0,0,0,1.88-.24,2.21,2.21,0,0,1,1.8-.27,14.81,14.81,0,0,1,2,1.23,2.51,2.51,0,0,1,.71.58,2.22,2.22,0,0,1,.35.87,9.45,9.45,0,0,1,.4,2c0,.65-.39.92-.83,1.41-.85.95-1.71,1.89-2.53,2.86-.42.45-1.37,1.43-1.28,1.81.67,1.05,3.65-2.49,5.53-1.88,1.11-.09,2.15,1.27,1,2-1.59,1.53-2.52,1.6-4.51,3.73s-5.61,2.91-7.3,4.93c-2.39,2.84-9.49,21.72-9.49,21.72s2.86,17.7,6.2,23.66c-.41,4.21.49,9.21-3.16,17.15-2.19,4.75-6.87,7.46-9.19,5.45-1.23-10.48-3.21-16.87-4.86-23.69-3-12.29-3-13.62-4.37-20.63C216.71,211.74,217.6,209.7,220.08,206.09Z" style="fill:#ffbda7"></path><path d="M239.42,182.68a1.22,1.22,0,0,0,.54.25c.48.13,1,.23,1.44.31.06.62-.11,1.24-.09,1.86a1.55,1.55,0,0,0,.87,1.51c.66.21,1.31-.29,2-.48a2.13,2.13,0,0,1,1.12,0,3.55,3.55,0,0,0,.72.15c.66,0,1-.71,1.49-1.18a.67.67,0,0,1,.34-.22,1.35,1.35,0,0,1,.4.08,1.53,1.53,0,0,0,1.35-.47,6,6,0,0,1,1.14-.95c.23-.11.47-.18.7-.27a5.08,5.08,0,0,0,1.79-1.54c-1.88-.61-4.86,2.93-5.53,1.88-.09-.38.86-1.36,1.28-1.81.82-1,1.68-1.91,2.53-2.86a2.78,2.78,0,0,0,.77-1.05,8.94,8.94,0,0,0-5.57-.27,12.38,12.38,0,0,0-2.72,1.31c-1.54.94-3,2-4.48,3.05a.69.69,0,0,0-.18.16A.45.45,0,0,0,239.42,182.68Z" style="fill:#f0997a"></path><path d="M246,184a3.05,3.05,0,0,0-2.15-.56,6.05,6.05,0,0,0-2.3.5,5,5,0,0,0-3.09,3.76c0,.12.11.18.18.08.43-.56.78-1.18,1.25-1.7a6.26,6.26,0,0,1,1.95-1.48,6,6,0,0,1,4.05-.34C246,184.27,246,184.06,246,184Z" style="fill:#f0997a"></path></g></g><path d="M271,96.1a6.9,6.9,0,0,1-2.66,2c-1.79.79,2.2,4.66,3.5,4.26s1-5.75,1-5.75Z" style="fill:#BA68C8"></path><path d="M271,96.1a6.9,6.9,0,0,1-2.66,2c-1.79.79,2.2,4.66,3.5,4.26s1-5.75,1-5.75Z" style="fill:#fff;opacity:0.6000000000000001"></path><path d="M258.4,59.45c-3.25,12.58,2,27.91,14.08,35a31.08,31.08,0,0,0,21.79-10.31,32.12,32.12,0,0,0,7.48-13.53C305,58,298.54,45.49,286,42.24a21.77,21.77,0,0,0-13,.55A23.63,23.63,0,0,0,258.4,59.45Z" style="fill:#BA68C8"></path><path d="M258.4,59.45c-3.25,12.58,2,27.91,14.08,35a31.08,31.08,0,0,0,21.79-10.31,32.12,32.12,0,0,0,7.48-13.53C305,58,298.54,45.49,286,42.24a21.77,21.77,0,0,0-13,.55A23.63,23.63,0,0,0,258.4,59.45Z" style="fill:#fff;opacity:0.6000000000000001"></path><path d="M258.4,59.45c-3.25,12.58,2,27.91,14.08,35a31.08,31.08,0,0,0,21.79-10.31v0c-12.18,10.19-27.22-.33-30.81-12.93s5.2-24.68,9.52-28.42h0A23.63,23.63,0,0,0,258.4,59.45Z" style="fill:#BA68C8;opacity:0.30000000000000004"></path><path d="M271,93.49a8.69,8.69,0,0,0,3.36.87,2.27,2.27,0,0,1-1.12,2.09,1.88,1.88,0,0,1-2.24-3Z" style="fill:#BA68C8"></path><path d="M268.34,98.63c-.23.14.22,1.12,1.42,2.21s1.78,1.14,1.93,1-.55-1.32-1.45-2.15S268.59,98.49,268.34,98.63Z" style="fill:#BA68C8;opacity:0.30000000000000004"></path><path d="M299.55,56.3a24.11,24.11,0,0,0-8.69-10.45,1.15,1.15,0,0,0-1.18,2,21.85,21.85,0,0,1,7.71,9.29,20.57,20.57,0,0,1,.39,12.48,28,28,0,0,1-2.21,5.8,1.15,1.15,0,0,0,.5,1.56l.11.05a1.15,1.15,0,0,0,1.44-.55,30,30,0,0,0,2.4-6.28A22.87,22.87,0,0,0,299.55,56.3Zm-5,22a1.18,1.18,0,1,0,.85,1.43A1.18,1.18,0,0,0,294.57,78.27ZM287.2,43.76a1.17,1.17,0,0,0-1.43.84,1.19,1.19,0,0,0,.85,1.44,1.18,1.18,0,1,0,.58-2.28Z" style="fill:#fff;opacity:0.2"></path><path d="M272.06,99.8a.3.3,0,0,0,.32-.15.24.24,0,0,0,0-.08,7.25,7.25,0,0,0,.07-2,.29.29,0,0,0-.32-.25.28.28,0,0,0-.26.31,6.43,6.43,0,0,1-.06,1.88A.29.29,0,0,0,272.06,99.8Zm.09.54a.27.27,0,0,0-.39-.07.28.28,0,0,0-.07.39.28.28,0,1,0,.46-.32Z" style="fill:#fff;opacity:0.30000000000000004"></path><path d="M270.4,99.82c-.18.37-.36.75-.55,1.11-1.17,2.31-2.43,4.59-3.56,6.92a77.56,77.56,0,0,0-3.63,8.68,56.76,56.76,0,0,0-3,17.27c-.14,6.24.43,12.47.38,18.7-.07,9.67-2,20.29-9.45,27.11-.52.49-1.51-.24-.9-.78,4.06-3.72,6.45-8.81,7.73-14.1,2.72-11.27.3-22.89,1.11-34.31A56.21,56.21,0,0,1,262.27,114a79,79,0,0,1,3.55-7.78,59.08,59.08,0,0,1,3.4-5.86c.21-.32.42-.64.65-1,.12.09.24.2.37.31Z" style="fill:#e0e0e0"></path><path d="M251.85,176.28a37.27,37.27,0,0,1-4.82,3.34c-1.58.9-3.22,1.71-4.81,2.6a26.44,26.44,0,0,0-8.42,7.54c-2.22,3-4,6.35-6.28,9.27a15.93,15.93,0,0,1-3.83,3.59,15.19,15.19,0,0,1-5.66,2,19.06,19.06,0,0,1-6.94.2c-2.74-.53-5.63-2.38-6.53-5.13-.05-.17-.22-.07-.19.08a6.63,6.63,0,0,0,2.38,4.17,10.49,10.49,0,0,0,5.69,2.14,23.43,23.43,0,0,0,6.78-.55,14.6,14.6,0,0,0,5.84-2.42c3.18-2.29,5.22-5.79,7.27-9,2.31-3.64,4.87-7.22,8.48-9.67,1.87-1.26,3.9-2.26,5.87-3.35a16.18,16.18,0,0,0,5.57-4.28C252.4,176.54,252.07,176.1,251.85,176.28Z" style="fill:#e0e0e0"></path><path d="M239.25,121.6a7,7,0,0,0,2.2,2.48c1.59,1.15-3.13,4.1-4.31,3.44s.21-5.84.21-5.84Z" style="fill:#BA68C8"></path><path d="M259.19,88.38c.55,13-7.76,26.88-21.08,31.31A31.07,31.07,0,0,1,219,105.06a32.19,32.19,0,0,1-4.49-14.8c-.54-13,8.39-23.91,21.38-24.46a21.75,21.75,0,0,1,12.58,3.25A23.61,23.61,0,0,1,259.19,88.38Z" style="fill:#BA68C8"></path><path d="M259.19,88.38c.55,13-7.76,26.88-21.08,31.31A31.07,31.07,0,0,1,219,105.06v0c9.78,12.51,26.69,5.35,32.82-6.22s.07-25.21-3.37-29.78h0A23.61,23.61,0,0,1,259.19,88.38Z" style="opacity:0.1"></path><path d="M239.81,119.05a8.76,8.76,0,0,1-3.46.15,2.25,2.25,0,0,0,.65,2.28,1.88,1.88,0,0,0,2.81-2.43Z" style="fill:#BA68C8"></path><path d="M239.81,119.05a8.76,8.76,0,0,1-3.46.15,2.25,2.25,0,0,0,.65,2.28,1.88,1.88,0,0,0,2.81-2.43Z" style="opacity:0.2"></path><path d="M241.28,124.63c.21.18-.44,1-1.84,1.86s-2,.74-2.09.56.81-1.17,1.86-1.8S241.08,124.43,241.28,124.63Z" style="opacity:0.2"></path><path d="M216.25,90.19a30.46,30.46,0,0,0,1,6.64,1.16,1.16,0,0,0,1.29.84l.13,0a1.15,1.15,0,0,0,.81-1.42,27.61,27.61,0,0,1-.95-6.13,20.49,20.49,0,0,1,3-12.12A21.76,21.76,0,0,1,231,70.49a1.16,1.16,0,1,0-.74-2.19,24.07,24.07,0,0,0-10.67,8.41A22.73,22.73,0,0,0,216.25,90.19Zm2.51,10.27a1.18,1.18,0,1,0,1.12-1.22A1.17,1.17,0,0,0,218.76,100.46Zm14.41-32.21A1.18,1.18,0,1,0,234.3,67,1.17,1.17,0,0,0,233.17,68.25Z" style="fill:#fff;opacity:0.2"></path><path d="M237.7,124.71a6.43,6.43,0,0,1,.34-1.85.31.31,0,0,0-.19-.37.28.28,0,0,0-.36.19,7.27,7.27,0,0,0-.37,2,.17.17,0,0,0,0,.07.28.28,0,0,0,.27.22A.29.29,0,0,0,237.7,124.71Zm-.51,1.19a.28.28,0,1,0,.41-.39.28.28,0,0,0-.4,0A.29.29,0,0,0,237.19,125.9Z" style="fill:#fff;opacity:0.30000000000000004"></path><path d="M254.15,174.35c-.1.46-.21.94-.35,1.41-.22-.32-.46-.64-.72-.95-.12-.15-.24-.29-.37-.43.06-.3.12-.61.16-.92a22.3,22.3,0,0,0,0-6.32c-1.08-7.73-5.56-14.37-8.81-21.31A40.13,40.13,0,0,1,240.5,135c-.43-2.78-.63-5.6-1.29-8.33-.1-.4-.2-.78-.32-1.18a2.69,2.69,0,0,0,.32-.19,5.16,5.16,0,0,1,.73-.38,8.65,8.65,0,0,1,.42,1c1.17,3.21,1.16,6.87,1.82,10.17,1.55,7.75,6.17,14.36,9.3,21.51a33.58,33.58,0,0,1,3,11.16A21.42,21.42,0,0,1,254.15,174.35Z" style="fill:#e0e0e0"></path><path d="M266.81,160.08a7,7,0,0,1-2.67,2c-1.79.78,2.21,4.66,3.5,4.25s1-5.75,1-5.75Z" style="fill:#455a64"></path><path d="M254.24,123.43c-3.24,12.59,2,27.91,14.08,35a31,31,0,0,0,21.79-10.31,32,32,0,0,0,7.48-13.53c3.25-12.59-3.2-25.14-15.79-28.39a21.88,21.88,0,0,0-13,.55A23.65,23.65,0,0,0,254.24,123.43Z" style="fill:#455a64"></path><path d="M254.24,123.43c-3.24,12.59,2,27.91,14.08,35a31,31,0,0,0,21.79-10.31h0c-12.17,10.19-27.22-.34-30.8-12.94s5.2-24.67,9.52-28.42h0A23.65,23.65,0,0,0,254.24,123.43Z" style="opacity:0.1"></path><path d="M266.79,157.48a8.84,8.84,0,0,0,3.36.86,2.28,2.28,0,0,1-1.12,2.1,1.88,1.88,0,0,1-2.24-3Z" style="fill:#37474f"></path><path d="M264.19,162.62c-.24.14.22,1.12,1.41,2.21s1.79,1.13,1.94,1-.56-1.31-1.45-2.15S264.43,162.48,264.19,162.62Z" style="opacity:0.2"></path><path d="M295.39,120.28a24.2,24.2,0,0,0-8.68-10.45,1.16,1.16,0,1,0-1.18,2,21.84,21.84,0,0,1,7.7,9.29,20.49,20.49,0,0,1,.39,12.48,28,28,0,0,1-2.21,5.8,1.15,1.15,0,0,0,.5,1.55l.12.06a1.17,1.17,0,0,0,1.44-.56,30.07,30.07,0,0,0,2.39-6.27A22.83,22.83,0,0,0,295.39,120.28Zm-5,22a1.17,1.17,0,1,0-.59,2.27,1.17,1.17,0,0,0,.59-2.27Zm-7.37-34.52a1.19,1.19,0,0,0-1.44.85,1.18,1.18,0,1,0,1.44-.85Z" style="fill:#fff;opacity:0.2"></path><path d="M267.91,163.79a.29.29,0,0,0,.31-.16l0-.07a7.27,7.27,0,0,0,.06-2.05.3.3,0,0,0-.32-.26.29.29,0,0,0-.25.32,7.23,7.23,0,0,1-.06,1.88A.29.29,0,0,0,267.91,163.79Zm.09.54a.28.28,0,0,0-.39-.07.26.26,0,0,0-.07.38.28.28,0,1,0,.46-.31Z" style="fill:#fff;opacity:0.30000000000000004"></path><path d="M266.37,164c-.2.35-.41.69-.62,1l-.51.77a27.6,27.6,0,0,1-3.66,4.28,31,31,0,0,1-4.78,3.67c-.84.54-1.71,1-2.54,1.61a25.64,25.64,0,0,1-2.79,2c-.32.17-1-.12-.77-.57.41-.91,1.61-1.59,2.4-2.14s1.7-1.09,2.55-1.61a31.37,31.37,0,0,0,4.64-3.45,28.65,28.65,0,0,0,3.7-4.08c.32-.43.63-.86.92-1.3s.41-.63.6-.94a5.6,5.6,0,0,1,.57.48A4,4,0,0,1,266.37,164Z" style="fill:#e0e0e0"></path><path d="M238.65,182.82a13.76,13.76,0,0,1,.33-4.16c.29-.85.56-1.71.92-2.53a7.51,7.51,0,0,1,1.24-1.82c1.12-1.37,2.62-1.35,4.27-1a1.83,1.83,0,0,0,.73.08,3.09,3.09,0,0,0,1-.56,2.64,2.64,0,0,1,2.61-.13.7.7,0,0,0,.85.07c1.2-.46,2.21.67,2.93,1.47a8.75,8.75,0,0,1,1.28,3.4,2.26,2.26,0,0,1,.13.85c-.11.94-1.14,2-1.69,2.74a4.34,4.34,0,0,1-2.41,1.26c-1.37,1.74-2.19,1.64-3.16,1.48-1.18,1.68-2.44,1.17-3.38,1.27-.89,1-2.22,1-2.26-.05a6.21,6.21,0,0,1,.31-2c.07-.24.3-.62.24-.88a2.16,2.16,0,0,0-.56-.79,4.26,4.26,0,0,1-1.67,1A3.94,3.94,0,0,1,238.65,182.82Z" style="fill:#ffbda7"></path><path d="M252.35,179.89a3.92,3.92,0,0,0-.06-2.7c-.39-1.05-.8-2.1-1.25-3.13a1.2,1.2,0,0,0-.45-.61c-.07.07,0,.2,0,.3.19.53.4,1,.59,1.55s.45,1.28.65,1.93a8.69,8.69,0,0,1,.27,1.12,2.93,2.93,0,0,1-.18,1.61c-.31.81-.71,1.57-1,2.38,0,0,0,0,.06,0A7.49,7.49,0,0,0,252.35,179.89Z" style="fill:#f0997a"></path><path d="M249.16,179.19a21.51,21.51,0,0,0-1-2.52c-.39-.93-.79-1.86-1.24-2.77-.05-.11-.22,0-.19.14q.45,1.31,1,2.58c.33.82.7,1.63,1,2.47a3.85,3.85,0,0,1,.22,2.24c-.16.67-.5,1.25-.72,1.9,0,.08.09,0,.12,0A5.07,5.07,0,0,0,249.16,179.19Z" style="fill:#f0997a"></path><path d="M245.67,183.17c.23-.36.45-.72.67-1.09a2.46,2.46,0,0,0,.4-1.85,9.34,9.34,0,0,0-.86-2.07,20,20,0,0,0-1.36-2.27c-.05-.08-.21.06-.17.14.41.7.77,1.41,1.12,2.14a14.45,14.45,0,0,1,.86,2,1.94,1.94,0,0,1,.07,1,5.71,5.71,0,0,1-.91,1.79c-.41.61-.73,1.28-1.08,1.93,0,0,0,.07,0,.07a2.78,2.78,0,0,0,.49-.65c.17-.25.34-.49.5-.74Z" style="fill:#f0997a"></path><path d="M240.63,238.57c-1.75-1.68-3.7-7.09-5.43-14.3,0,0-.63,3.55-6.6,5.83s-8.5.76-8.5.76,1.59,6.86,2.92,13.77,3.3,17.11,3.3,17.11,2.66,3.25,7.29-.87S240.63,247,240.63,238.57Z" style="fill:#455a64"></path></g></g></g><g id="freepik--character-1--inject-20"><g id="freepik--character--inject-20"><g id="freepik--bottom--inject-20"><path d="M139.08,388.52c-3.44-3.73-7-7.34-10.62-10.9a130.64,130.64,0,0,1-5.12,12.47c-1.8,1.78-4,3.32-5.55,5.37-1.34,1.84-2.63,3.77-2,6.17a23.94,23.94,0,0,0,2.08,4.1c1.65,3.38,1.26,7.37,2.17,11a16,16,0,0,0,10.12,11.05,8.31,8.31,0,0,0,4.62.43,2.71,2.71,0,0,0,1.94-2.24,9.48,9.48,0,0,0-.24-3.82c-1-4.66-3.1-9.1-3.45-13.86-.2-2.9,0-6.27,1.59-8.79,1.23-2,2.86-4.17,4.26-6,.73-1,1.44-1.92,2.14-2.84Z" style="fill:#9a4a4d"></path><path d="M114.79,398.8a7.3,7.3,0,0,0-.94,2.66c-.19,1,2.11,4.69,2.35,6.6s0,2.52.14,5c.1,2.75-.65,5.61,3.81,10.89s8.7,6.89,11.88,7.29a7.25,7.25,0,0,0,3.38-.56s2.8-2.67,1.46-4.43S114.79,398.8,114.79,398.8Z" style="fill:#263238"></path><path d="M134.48,400.42c.18.67-.26,1.47-.6,2.91a16.57,16.57,0,0,0,0,6.14c2.12,10.45,5.83,14.41,3.35,19.06-.9,1.7-4.31,2.64-11.61-1.41-3.73-2.07-7.8-7.85-8.08-11.13s.21-5.7-.13-8.18-3-6.59-2.57-9a9.25,9.25,0,0,1,2.77-4,28.64,28.64,0,0,0,3.58-3.48c.77-1,1.31-1.66,2.2-1.24l-.86,1.7c-.69,3-.58,3.68-.41,5,.23,1.77.87,2.51,1.18,3.9.56-2,.49-3.64,1.88-4,.76-.22,1.56-.29,4.18.67S134.33,399.83,134.48,400.42Z" style="fill:#455a64"></path><path d="M125.62,427.14c-3.72-2.07-7.8-7.85-8.08-11.13a30.59,30.59,0,0,1-.08-3.26c.05.21.07.44.12.61a12.34,12.34,0,0,0,.33,1.19,9.3,9.3,0,0,0,2.33,4.16c1.05,1,3.58,3.44,5.23,2.82.93-.36,1.32-1.58,1.24-2.75,0-.5-.29-1.77-.29-1.77a15.5,15.5,0,0,1,4.94-.07c3,.56,3.06.94,3.06.94a6.66,6.66,0,0,0,.8,2.09,5.06,5.06,0,0,0,1.48,1.59,3,3,0,0,0,.73.29c.84,2.26,1.33,4.27-.19,6.71C136.14,430.14,132.92,431.2,125.62,427.14Z" style="fill:#37474f"></path><path d="M133.58,406v0a3.61,3.61,0,0,0-.18,1.5,39.06,39.06,0,0,0,.83,6.88,5.51,5.51,0,0,1-.07,2.62,5.31,5.31,0,0,0-.43,1,.62.62,0,0,0,.27.72,1.14,1.14,0,0,0,1.25.14,1.63,1.63,0,0,0,.54-.79c.09-.19.17-.39.24-.58a68.51,68.51,0,0,1-2.19-8A15.47,15.47,0,0,1,133.58,406Z" style="fill:#37474f"></path><path d="M120.43,396.09a15.32,15.32,0,0,1,.22-4.19,7.24,7.24,0,0,0,.49-.57c.77-1,1.31-1.66,2.2-1.24l-.86,1.7a13.1,13.1,0,0,0-.08,4.43c.37,2,.54,3.1.85,4.49.79,4.59.49,6.36,1.7,10.5s3.13,6.45,2.67,6.91-1.78.49-3.33-2.59-2.4-9-2.48-11.9S120.75,399.05,120.43,396.09Z" style="fill:#37474f"></path><path d="M126.24,417a.49.49,0,0,0,.24.05,10.22,10.22,0,0,1,7.73,1.8.44.44,0,0,0,.59-.13.42.42,0,0,0-.13-.59,11.07,11.07,0,0,0-8.27-1.93.42.42,0,0,0-.38.46A.43.43,0,0,0,126.24,417Z" style="fill:#ebebeb"></path><path d="M125.5,413.72a.51.51,0,0,0,.24,0,11.46,11.46,0,0,1,8.27,1.7.42.42,0,0,0,.59-.16.44.44,0,0,0-.16-.6,12.33,12.33,0,0,0-8.8-1.81.44.44,0,0,0-.14.83Z" style="fill:#ebebeb"></path><path d="M124.34,410.23a.42.42,0,0,0,.27,0,13.06,13.06,0,0,1,9.27,1.79.49.49,0,1,0,.47-.85,14,14,0,0,0-9.87-1.89.47.47,0,0,0-.41.54A.46.46,0,0,0,124.34,410.23Z" style="fill:#ebebeb"></path><path d="M123.86,406.59a.39.39,0,0,0,.26,0,12.7,12.7,0,0,1,9,1.82.48.48,0,0,0,.65-.18.46.46,0,0,0-.18-.64,13.66,13.66,0,0,0-9.63-1.94.47.47,0,0,0-.41.53A.45.45,0,0,0,123.86,406.59Z" style="fill:#ebebeb"></path><path d="M123.46,402.86a.53.53,0,0,0,.26.05c3.43-.33,6,.39,9.35,2.43a.48.48,0,0,0,.65-.16.47.47,0,0,0-.16-.65c-3.57-2.14-6.29-2.92-9.93-2.57a.48.48,0,0,0-.17.9Z" style="fill:#ebebeb"></path><path d="M135.34,330c9.95,7.81,13.37,10.64,19.89,17.71,6,6.51,9.72,14.56,2.5,23.8-8.72,11.17-17,20.62-17,20.62-2.73.26-12.55-6.92-13.28-12.94,1.46-3.18,3.72-9.58,8-12.78l-19.73-13L104.93,330Z" style="fill:#455a64"></path><path d="M147.69,447.07q-.36-.37-.75-.72c-2.4-2.16-5.47-3.5-8.15-5.36a31.63,31.63,0,0,1-3.32-2.68c-.51-.47-3.47-6-3.62-7.25-.29-2.35-.55-7.24-.6-10.67,0-2.49-.08-6.29-.14-10.55l-17.69,4.06c1.19,4.1,2.46,8.68,3.58,13.61,0,.14-.18.49-.22.64a7,7,0,0,0-.18.79,12.26,12.26,0,0,0-.27,2.18,7.41,7.41,0,0,1-.5,2.09,13.34,13.34,0,0,0-.51,2.59,6.33,6.33,0,0,0,1.11,4.37c1,1.34,2.7,2,4.1,3,2.26,1.55,3.84,3.85,5.53,6a22.1,22.1,0,0,0,2.75,3,13.69,13.69,0,0,0,3.31,2,13.19,13.19,0,0,0,4.16,1,28.47,28.47,0,0,0,3.9.31,20.34,20.34,0,0,0,3.11-.3,11.29,11.29,0,0,0,2.91-.84,9.52,9.52,0,0,0,2.52-2c.8-.77.67-2.35.27-3.29A6.13,6.13,0,0,0,147.69,447.07Z" style="fill:#b16668"></path><path d="M115,439.27a7,7,0,0,0,.75,2.7c.4.9,4.38,2.62,5.66,4a48.92,48.92,0,0,1,3,4c1.65,2.18,2.67,4.94,9.3,6.69s11,.66,13.83-.82a7.15,7.15,0,0,0,2.44-2.38s.75-3.77-1.34-4.43S115,439.27,115,439.27Z" style="fill:#263238"></path><path d="M131.92,429.38c.52.45.61,1.35,1.16,2.72a16.25,16.25,0,0,0,3.46,5c7.66,7.31,13,8.42,13.58,13.62.23,1.9-2,4.61-10.26,5.46-4.22.43-10.83-1.95-12.92-4.46s-3.08-4.77-4.76-6.59-6.18-3.67-7.22-5.88a9,9,0,0,1,0-4.82,28.62,28.62,0,0,0,.93-4.87c0-1.26.13-2.11,1.09-2.27l.27,1.88c1.17,2.88,1.62,3.32,2.52,4.31,1.2,1.32,2.14,1.55,3.18,2.51-.69-2-1.67-3.24-.77-4.36.49-.61,1.1-1.12,3.79-1.83S131.45,429,131.92,429.38Z" style="fill:#455a64"></path><path d="M139.91,456.19c-4.21.43-10.82-1.95-12.92-4.46a27.45,27.45,0,0,1-1.92-2.62c.16.15.31.32.44.44.31.27.63.52.95.77a9.22,9.22,0,0,0,4.26,2.06c1.41.19,4.88.77,5.87-.68.55-.81.18-2-.56-2.94-.31-.39-1.23-1.28-1.23-1.28a15.17,15.17,0,0,1,4-2.86c2.77-1.26,3-1,3-1a6.93,6.93,0,0,0,1.84,1.25,5.38,5.38,0,0,0,2.11.45,3.14,3.14,0,0,0,.76-.18c2,1.36,3.52,2.72,3.66,5.57C150.18,452.64,148.16,455.34,139.91,456.19Z" style="fill:#37474f"></path><path d="M134.37,434.46v0a3.69,3.69,0,0,0,.71,1.32,37.82,37.82,0,0,0,4.59,5.13,5.42,5.42,0,0,1,1.43,2.18,5.06,5.06,0,0,0,.22,1,.59.59,0,0,0,.62.43,1.13,1.13,0,0,0,1.1-.6,1.59,1.59,0,0,0,0-.94,4.29,4.29,0,0,0-.14-.62,67.41,67.41,0,0,1-6.35-5.3A15.22,15.22,0,0,1,134.37,434.46Z" style="fill:#37474f"></path><path d="M118,433.86a15.24,15.24,0,0,1-2.21-3.54c0-.27.06-.53.07-.74,0-1.26.13-2.11,1.09-2.27l.27,1.88a12.91,12.91,0,0,0,2.45,3.65c1.45,1.42,2.21,2.21,3.25,3.17,3.26,3.29,4,4.9,7.36,7.58s6.22,3.48,6.11,4.12-1.17,1.41-4.18-.22-7.06-5.94-8.8-8.28S120,436.08,118,433.86Z" style="fill:#37474f"></path><path d="M134.62,447.54a.37.37,0,0,0,.22-.1,10.2,10.2,0,0,1,7.32-2.93.43.43,0,0,0,.4-.44.43.43,0,0,0-.44-.41,11,11,0,0,0-7.83,3.14.42.42,0,0,0,.33.74Z" style="fill:#ebebeb"></path><path d="M132.17,445.33a.46.46,0,0,0,.22-.11,11.44,11.44,0,0,1,7.7-3.32.42.42,0,0,0,.39-.47.44.44,0,0,0-.47-.4,12.29,12.29,0,0,0-8.2,3.54.44.44,0,0,0,.36.76Z" style="fill:#ebebeb"></path><path d="M129.24,443.15a.55.55,0,0,0,.24-.12,12.93,12.93,0,0,1,8.57-3.82.5.5,0,0,0,.43-.53.48.48,0,0,0-.53-.43,13.85,13.85,0,0,0-9.11,4.07.48.48,0,0,0,0,.68A.5.5,0,0,0,129.24,443.15Z" style="fill:#ebebeb"></path><path d="M126.78,440.46a.6.6,0,0,0,.24-.12,12.62,12.62,0,0,1,8.4-3.67.46.46,0,0,0,.42-.51.47.47,0,0,0-.51-.43,13.53,13.53,0,0,0-8.94,3.91.47.47,0,0,0,0,.67A.5.5,0,0,0,126.78,440.46Z" style="fill:#ebebeb"></path><path d="M124.32,437.64a.43.43,0,0,0,.24-.1c2.61-2.23,5.08-3.07,9-3.35a.47.47,0,0,0-.07-.94c-4.12.29-6.78,1.21-9.55,3.57a.46.46,0,0,0,0,.66A.44.44,0,0,0,124.32,437.64Z" style="fill:#ebebeb"></path><path d="M86.81,330c-2.47,18.27,2.84,27.7,12.32,42.77,6.9,11,9.24,15.81,9.24,15.81a53.57,53.57,0,0,0,.6,10.78c1,5.63,4.9,18,4.9,18a28.76,28.76,0,0,0,17.74-2.77s-.11-5.82,0-19.23c.18-15.36-1.5-17.15-5.56-31.23-5-17.22-9.33-34.11-9.33-34.11Z" style="fill:#455a64"></path><path d="M124.73,359.35,123,353.61s7.49-4,10.09-11.54a18.72,18.72,0,0,1-5.91,12.77l.64,4.22,7.34,5.43s3.85-3.65,7.18-3.19c-3.48.69-7,5.06-7,5.06Z" style="fill:#37474f"></path></g><g id="freepik--top--inject-20"><g id="freepik--top--inject-20"><g id="freepik--arm--inject-20"><path d="M141.7,250.23c-.44-1.85-2.5-3.12-4.67-5.26a17.14,17.14,0,0,1-3.69-7c-.24-1.05-1.79-3,.09-3.3a3,3,0,0,1,2.68.89c.32.29,2.84,4.28,2.75,2.47-.5-2.92-3.42-7.21-4.42-10.42-.25-1.28-.75-3.38.58-4.16.95-.34,1.71.6,2.12,1.36,1.29-.82,2.69-.16,3.83.56a5.36,5.36,0,0,0,1.6,0,2.81,2.81,0,0,1,2.64,2c3.88-.63,5.54,6.19,6.48,9,.31,1,.61,2.11.93,3.16,1.24,4.1.5,4.33.93,7.43.59,2.24,1.46,4.25,4.21,12.1s3,9.36,3.72,12.91c1,4.87-1.3,6.81-8.64,12.61C141,294,138.66,294.75,133.38,301.17l-11.82-19.39a21.09,21.09,0,0,0,8.61-3.15c9.55-5.45,12.07-7.37,14.55-9.34C144.72,269.29,142.39,253.9,141.7,250.23Z" style="fill:#b16668"></path></g><path d="M150.88,284.37c-1.63-6.3-6.12-9.31-11.34-11.61-2.06,1.35-4.92,3.11-9.42,5.68a25.78,25.78,0,0,1-8.7,3.21l3.41,6.54a19.61,19.61,0,0,1,5.42,3.95c3,3.44,2.71,9.95,2.71,9.95,4.5-5.81,8.92-8.66,18.27-16C151.14,285.52,151,285,150.88,284.37Z" style="fill:#37474f"></path><g id="freepik--arm--inject-20"><path d="M146.31,243.24a8.58,8.58,0,0,0-1.11-2.12,6.19,6.19,0,0,0-4-2.69c-.19,0-.13.19,0,.26.6.49,1.27.87,1.85,1.37a9.49,9.49,0,0,1,1.54,1.69,8.15,8.15,0,0,1,1,1.9,6.47,6.47,0,0,1,.3,1,2.33,2.33,0,0,0,.3,1c.1.13.4.21.47,0A3.9,3.9,0,0,0,146.31,243.24Z" style="fill:#9a4a4d"></path></g><path d="M85.85,308c-1.94-10.77.46-15.17,1.77-18.8a8.58,8.58,0,0,1,7.66-5.82s10.82-2.13,12.2-2.17a93.32,93.32,0,0,1,11.93.29c3,.29,4.58,0,7,2.26s6.91,6.74,7.33,18.09c.58,15.92.56,20.35,2.55,28.63-4.09,8.73-29.4,20.58-51.44,9.59,0,0,.85-7.17,1.32-12.38C86.72,321.87,87.29,316,85.85,308Z" style="fill:#BA68C8"></path><path d="M85.85,308c-1.94-10.77.46-15.17,1.77-18.8a8.58,8.58,0,0,1,7.66-5.82s10.82-2.13,12.2-2.17a93.32,93.32,0,0,1,11.93.29c3,.29,4.58,0,7,2.26s6.91,6.74,7.33,18.09c.58,15.92.56,20.35,2.55,28.63-4.09,8.73-29.4,20.58-51.44,9.59,0,0,.85-7.17,1.32-12.38C86.72,321.87,87.29,316,85.85,308Z" style="fill:#fff;opacity:0.30000000000000004"></path><path d="M81.86,293.69c2.54-5.36,14.38-16.05,14.38-16.05,3.92,3.49,10.48,3.56,11.24,3.54a97.69,97.69,0,0,1,11.94.25c3,.29,4.76.09,7.23,2.33s6.59,6.35,7.06,17c-.12-.83-.94-5.77-3.3-8.82-2.58-3.35-8.91-6.74-8.91-6.74s-.09,2.21-3.08,3.69c-3.48,1.72-11,.83-14.07-2.15,0,0-4.06,8.46-6.21,11.48-2.54,3.59-6.78,10.56-12.29,9.71A70.63,70.63,0,0,0,81.86,293.69Z" style="fill:#455a64"></path><g id="freepik--head--inject-20"><path d="M105.44,243.37a5.16,5.16,0,0,0,.25-1,4.86,4.86,0,0,0-.57-3A4.94,4.94,0,0,0,100,237a11.13,11.13,0,0,1-3.08.68c-2-.17-3.5-2.76-5.7-1.91a5.76,5.76,0,0,0-2.39,2.08,10.49,10.49,0,0,1-2.12,2.38,6.61,6.61,0,0,1-3.27,1,3.8,3.8,0,0,0-3.81,2.59c-.58,1.71,1.12,3.53.71,5.28-.3,1.32-1.59,2.13-2.71,2.89s-2.28,1.89-2.11,3.24,1.32,2,2.4,2.57,2.28,1.22,2.65,2.38c.51,1.59-.82,3.36-.24,4.92a3.57,3.57,0,0,0,3,1.9,13.12,13.12,0,0,1,3.6.69,16,16,0,0,1,2.42,1.78,3.15,3.15,0,0,0,2.8.7c1.28-.44,1.75-2,2.89-2.77,1.49-.95,3.66-.16,5.1-1.2s1.28-3.07.82-4.71-1.14-3.4-.46-5a5.57,5.57,0,0,1,2.68-2.45,10.37,10.37,0,0,0,3.08-2,2.79,2.79,0,0,0,.41-3.39,2.53,2.53,0,0,0-1-.79c-.29-.11-.49-.14-.65-.44a4.11,4.11,0,0,1-.27-2.43,4,4,0,0,1,.6-1.19A3.43,3.43,0,0,0,105.44,243.37Z" style="fill:#263238"></path><path d="M95.14,242.44c-2.59,2.1-5.65,6.62-3.53,9.83,3.26,2.33,7.15-2.21,8.55-4.91C101.81,243.32,99.46,239,95.14,242.44Z" style="fill:#BA68C8"></path><path d="M129.25,244c4.62,7.54,1.51,14.62-.16,15.89l-26.32,18.2c-1.87-4.14-8-5.94-11.15-14.67-1.81-5.06-.81-13.13,3.67-16C98.08,235.3,121.45,231.28,129.25,244Z" style="fill:#263238"></path><path d="M97.14,270.55a6.87,6.87,0,0,1-3.28-3.21c-1-1.93-1-4.81-.4-6a4,4,0,0,1,4.07-2,3.32,3.32,0,0,1,2.56,2c.4.68,1.07,2.41,2,2.09,1.42-.49.81-3.44.81-4.88,0-8.69,6.36-12.66,12.81-12.21,5.94-2.73,10.12.34,12.18,4.68,1.54,3.24.5,6.76.75,7.77a16.73,16.73,0,0,1,1.27,4.86,12.57,12.57,0,0,1-2,9.59,13.82,13.82,0,0,1-9.69,5.36h0l.07,3.63c5.66,5.89-11.33,9.12-16.87.81l.05-13.52A4.79,4.79,0,0,1,97.14,270.55Z" style="fill:#b16668"></path><path d="M118.29,278.59a21.82,21.82,0,0,1-10.56-1.7,10.19,10.19,0,0,1-4.67-5.22,6.71,6.71,0,0,0,3,6.41c4.54,3,12.21,2.6,12.21,2.6Z" style="fill:#9a4a4d"></path><path d="M112.7,267.73c1-1.07,2,.24,4.22.59s3.57-.86,4,.6c.37,1.21-1,3.84-4.78,3.5C112.94,272.14,111.79,268.68,112.7,267.73Z" style="fill:#9a4a4d"></path><path d="M116.92,268.32a30.47,30.47,0,0,1-3.12-1l0,1.05a4.82,4.82,0,0,0,2.48,1,6.51,6.51,0,0,0,3.57-.26l.28-1A16.1,16.1,0,0,1,116.92,268.32Z" style="fill:#fafafa"></path><path d="M116.15,272.42a6,6,0,0,0,2-.14,4.35,4.35,0,0,0-4.42-2.59,4.2,4.2,0,0,0-1.07.27A4.1,4.1,0,0,0,116.15,272.42Z" style="fill:#ffa8a7"></path><polygon points="116.69 257.03 118.25 265.42 122.67 262.97 116.69 257.03" style="fill:#9a4a4d"></polygon><path d="M124.12,261.22a2.84,2.84,0,1,0,2.84-2.75A2.8,2.8,0,0,0,124.12,261.22Z" style="fill:#9a4a4d"></path><path d="M106.65,263a2.84,2.84,0,1,0,2.84-2.75A2.79,2.79,0,0,0,106.65,263Z" style="fill:#9a4a4d"></path><path d="M122.31,255.13l3.82,1.58a2.17,2.17,0,0,0-1.16-2.77A2,2,0,0,0,122.31,255.13Z" style="fill:#263238"></path><path d="M112,256.36l-3.42,2.31a2.16,2.16,0,0,1,.58-2.94A2,2,0,0,1,112,256.36Z" style="fill:#263238"></path><path d="M126,259.34a1.7,1.7,0,1,1-1.55-1.83A1.69,1.69,0,0,1,126,259.34Z" style="fill:#263238"></path><path d="M114,260.63a1.7,1.7,0,1,1-1.55-1.83A1.7,1.7,0,0,1,114,260.63Z" style="fill:#263238"></path><path d="M119.09,242c3.53.7,7.26,2.21,9,5.68a5.44,5.44,0,0,1,.8,2.09c0,.33-.51.42-.77.49a18.21,18.21,0,0,1-4.87.66.74.74,0,0,1-.89-.54,10.22,10.22,0,0,0-1-2.07c-.23-.34-.91-1.24-.87-.48a18.56,18.56,0,0,1,.07,3.41,1.25,1.25,0,0,1-.69.75,20.91,20.91,0,0,1-6.27,1.59,3.29,3.29,0,0,1-1.57-.06c-.65-.38-.85-1.46-.9-3.72,0-.26,0-.46-.1-.5-.64.12-1.28,2.72-1.36,3.12s-.09.84-1.24,1.05a12.82,12.82,0,0,1-6-.07c-.11-.05-.3,0-.38-.11a2.14,2.14,0,0,1-.18-1c0-1.8,1.07-3.27,2.14-4.58a16.66,16.66,0,0,1,3.76-3.39C112.14,241.83,115.18,241.41,119.09,242Z" style="fill:#263238"></path></g><g id="freepik--arm--inject-20"><g id="freepik--arm--inject-20"><path d="M66.92,252.49c1-4.93,2.27-9.8,3.59-14.65a73.18,73.18,0,0,0,2.11-12.67,35.36,35.36,0,0,1,2.15-8.24,7.48,7.48,0,0,1,.78-1.7,5.12,5.12,0,0,1,3.54-2,2.39,2.39,0,0,0,2-1.08c.4-.61.83-1.2,1.63-1.2a14.54,14.54,0,0,1,2.44.37,3,3,0,0,1,.92.27,2.7,2.7,0,0,1,.69.7A10.39,10.39,0,0,1,88,214.07c.27.63,0,1-.23,1.7-.44,1.26-.89,2.52-1.29,3.79-.22.6-.75,1.93-.51,2.26,1.08.75,2.52-3.88,4.59-4,1-.53,2.59.36,1.82,1.54A23.27,23.27,0,0,0,91,222.77a17.27,17.27,0,0,1-1.83,3.45c-.89,1.21-2,2.24-3,3.39-1.77,2.13-2.1,4.66-2.45,7.31s-.55,5.14-.74,7.72c-.21,2.9-.39,5.8-.52,8.7,0,0,1.92,4.86,5.09,11.88,2.88,6.36,4.65,8.9,8.24,12.54a17.66,17.66,0,0,1-3.5,16.46c-3.46,4.23-5.48,4.61-8.53,3.61-1.33-5.36-3.3-7.95-6.44-14-4.9-9.41-8.17-15.92-10.09-21.43C65.79,258.24,66,257,66.92,252.49Z" style="fill:#b16668"></path><path d="M77.64,224.27a1.34,1.34,0,0,0,.63,0c.5-.07,1-.16,1.51-.28.31.57.4,1.24.66,1.84A1.63,1.63,0,0,0,81.9,227c.72-.06,1.14-.81,1.71-1.26a2.42,2.42,0,0,1,1.09-.47,3.2,3.2,0,0,0,.75-.14c.63-.28.72-1.11,1-1.75a.76.76,0,0,1,.24-.34,1.22,1.22,0,0,1,.43-.08,1.66,1.66,0,0,0,1.11-1,6.47,6.47,0,0,1,.72-1.38c.17-.19.37-.35.56-.54a5.18,5.18,0,0,0,1.1-2.21c-2.06.17-3.5,4.8-4.58,4-.24-.33.29-1.66.51-2.26.4-1.27.85-2.53,1.29-3.79a2.86,2.86,0,0,0,.32-1.32,9.34,9.34,0,0,0-5.49,2,12.83,12.83,0,0,0-2.1,2.37c-1.11,1.53-2.11,3.15-3.1,4.76a.62.62,0,0,0-.1.22A.47.47,0,0,0,77.64,224.27Z" style="fill:#9a4a4d"></path><path d="M84.48,222.89a3.24,3.24,0,0,0-2.31.33,6.46,6.46,0,0,0-2,1.41,5.22,5.22,0,0,0-1.46,4.88c0,.12.17.13.2,0,.19-.72.28-1.45.52-2.16a6.83,6.83,0,0,1,1.29-2.21,6.31,6.31,0,0,1,3.78-2C84.61,223.16,84.58,222.94,84.48,222.89Z" style="fill:#9a4a4d"></path></g><path d="M96.24,277.64c-3.71-4.73-6.08-6.34-9.41-14.46C86.45,269,76,274,71.77,274c4,7.91,10.39,19.19,12.65,27.43,5.38,1.27,9.85-4.87,11.82-10.88A18.85,18.85,0,0,0,96.24,277.64Z" style="fill:#37474f"></path></g></g><path d="M88.07,134.6A6.9,6.9,0,0,1,86,137.18c-1.53,1.22,3.31,3.95,4.46,3.23s-.47-5.82-.47-5.82Z" style="fill:#BA68C8"></path><path d="M66.64,102.32c0,13,9,26.5,22.48,30.32a31,31,0,0,0,18.47-15.5,32,32,0,0,0,3.81-15c0-13-9.46-23.51-22.47-23.46a21.83,21.83,0,0,0-12.42,3.82A23.63,23.63,0,0,0,66.64,102.32Z" style="fill:#BA68C8"></path><path d="M66.64,102.32c0,13,9,26.5,22.48,30.32a31,31,0,0,0,18.47-15.5h0c-9.2,12.94-26.42,6.57-33.08-4.71s-1.22-25.19,2-29.91h0A23.63,23.63,0,0,0,66.64,102.32Z" style="opacity:0.1"></path><path d="M87.39,132.08a8.76,8.76,0,0,0,3.47,0,2.26,2.26,0,0,1-.55,2.31,1.88,1.88,0,0,1-2.92-2.3Z" style="fill:#BA68C8"></path><path d="M87.39,132.08a8.76,8.76,0,0,0,3.47,0,2.26,2.26,0,0,1-.55,2.31,1.88,1.88,0,0,1-2.92-2.3Z" style="opacity:0.2"></path><path d="M86.18,137.71c-.19.2.49,1,1.92,1.78s2,.65,2.13.47c.2-.34-.87-1.14-2-1.72S86.38,137.51,86.18,137.71Z" style="opacity:0.2"></path><path d="M105.64,88.86A24.1,24.1,0,0,0,94.6,81,1.16,1.16,0,0,0,94,83.17a21.75,21.75,0,0,1,9.8,7,20.51,20.51,0,0,1,3.54,12,27.48,27.48,0,0,1-.67,6.16,1.15,1.15,0,0,0,.88,1.38l.13,0a1.16,1.16,0,0,0,1.25-.9,30.44,30.44,0,0,0,.73-6.68A22.78,22.78,0,0,0,105.64,88.86Zm.76,22.51a1.18,1.18,0,1,0,1.18,1.18A1.19,1.19,0,0,0,106.4,111.37ZM90.53,79.85A1.18,1.18,0,1,0,91.71,81,1.17,1.17,0,0,0,90.53,79.85Z" style="fill:#fff;opacity:0.2"></path><path d="M90.07,137.9a.3.3,0,0,0,.27-.23v-.08a6.92,6.92,0,0,0-.45-2,.3.3,0,0,0-.38-.17.29.29,0,0,0-.17.37,6.24,6.24,0,0,1,.42,1.83A.29.29,0,0,0,90.07,137.9Zm.23.5a.28.28,0,0,0-.4,0,.27.27,0,0,0,0,.39.28.28,0,0,0,.4,0A.29.29,0,0,0,90.3,138.4Z" style="fill:#fff;opacity:0.30000000000000004"></path><path d="M78.4,242.68a18.15,18.15,0,0,1-2.05,4.5c-3.56,5.56-8.64,9.94-12.24,15.48-2.31,3.56-2.25,7.39-2.27,11.51a.58.58,0,0,1-.07.32.56.56,0,0,1-.33.2c-1.7.48-1.53-3.88-1.46-4.94a15.72,15.72,0,0,1,1.77-6.16c3.44-6.62,9.83-11.17,13.49-17.7,2.59-4.63,3-9.29,3.16-15.19.12-3.66.72-7.4.94-11.08s8-6.71,8.82-10.22a39.77,39.77,0,0,0,1.1-10.7c-.24-7.08-2.07-14-3.67-20.85-1.57-6.71-3-13.56-2.72-20.48a45.3,45.3,0,0,1,1.79-10.27,53.37,53.37,0,0,1,2.81-8c.17-.35.33-.69.51-1l.3.14.41.23c-.13.38-.27.75-.39,1.12a92.28,92.28,0,0,0-2.61,8.91,47.82,47.82,0,0,0-1.26,13.17c.62,13.83,7,26.89,6.39,40.84A50.5,50.5,0,0,1,89,212.84c-.69,2.7-4,4.5-5.84,6.32-2.36,2.3-3.07,6.2-3.28,9.36C79.56,233.32,79.77,238.17,78.4,242.68Z" style="fill:#e0e0e0"></path><path d="M68,158.85a6.88,6.88,0,0,0,2.46,2.22c1.71,1-2.64,4.43-3.89,3.9s-.46-5.82-.46-5.82Z" style="fill:#BA68C8"></path><path d="M68,158.85a6.88,6.88,0,0,0,2.46,2.22c1.71,1-2.64,4.43-3.89,3.9s-.46-5.82-.46-5.82Z" style="fill:#fff;opacity:0.6000000000000001"></path><path d="M84,123.57c2,12.84-4.65,27.6-17.37,33.51A31,31,0,0,1,46,144.73a32.1,32.1,0,0,1-6.15-14.18c-2-12.84,5.6-24.72,18.45-26.74a21.72,21.72,0,0,1,12.87,1.79A23.66,23.66,0,0,1,84,123.57Z" style="fill:#BA68C8"></path><path d="M84,123.57c2,12.84-4.65,27.6-17.37,33.51A31,31,0,0,1,46,144.73a32.1,32.1,0,0,1-6.15-14.18c-2-12.84,5.6-24.72,18.45-26.74a21.72,21.72,0,0,1,12.87,1.79A23.66,23.66,0,0,1,84,123.57Z" style="fill:#fff;opacity:0.6000000000000001"></path><path d="M84,123.57c2,12.84-4.65,27.6-17.37,33.51A31,31,0,0,1,46,144.73h0C57.1,156,73.08,147,77.86,134.79s-2.81-25-6.76-29.2h0A23.66,23.66,0,0,1,84,123.57Z" style="fill:#BA68C8;opacity:0.30000000000000004"></path><path d="M68.28,156.26a8.75,8.75,0,0,1-3.43.54,2.26,2.26,0,0,0,.91,2.19,1.88,1.88,0,0,0,2.52-2.73Z" style="fill:#BA68C8"></path><path d="M70.37,161.63c.22.16-.32,1.09-1.61,2.06s-1.89,1-2,.8.67-1.26,1.64-2S70.14,161.46,70.37,161.63Z" style="fill:#BA68C8;opacity:0.30000000000000004"></path><path d="M41.57,130.27a30,30,0,0,0,1.78,6.48,1.17,1.17,0,0,0,1.38.69l.12,0a1.16,1.16,0,0,0,.65-1.51,28.44,28.44,0,0,1-1.65-6,20.5,20.5,0,0,1,1.59-12.38A21.75,21.75,0,0,1,54,109a1.16,1.16,0,0,0-1-2.09,24.12,24.12,0,0,0-9.64,9.57A22.79,22.79,0,0,0,41.57,130.27Zm3.67,9.92a1.17,1.17,0,1,0,1-1.34A1.16,1.16,0,0,0,45.24,140.19Zm10.64-33.65a1.17,1.17,0,1,0,1-1.34A1.17,1.17,0,0,0,55.88,106.54Z" style="fill:#fff;opacity:0.2"></path><path d="M66.82,162.12a6.85,6.85,0,0,1,.12-1.88.29.29,0,0,0-.22-.34.29.29,0,0,0-.34.23,7.26,7.26,0,0,0-.14,2s0,.06,0,.08a.28.28,0,0,0,.3.18A.28.28,0,0,0,66.82,162.12Zm-.37,1.24a.29.29,0,0,0,.4,0,.28.28,0,0,0-.43-.36A.28.28,0,0,0,66.45,163.36Z" style="fill:#fff;opacity:0.30000000000000004"></path><path d="M88.83,209.56c0,.47-.1,1-.18,1.44-.26-.29-.54-.58-.83-.86a5.11,5.11,0,0,0-.42-.39c0-.3,0-.62.06-.93a22.21,22.21,0,0,0-.73-6.28c-2-7.55-7.16-13.64-11.18-20.16A40.36,40.36,0,0,1,70.77,172c-.74-2.72-1.26-5.5-2.23-8.13-.15-.39-.29-.76-.45-1.14a2,2,0,0,0,.29-.22,5.66,5.66,0,0,1,.69-.47,9.66,9.66,0,0,1,.52.94c1.53,3.06,1.94,6.7,3,9.9,2.43,7.52,7.78,13.56,11.69,20.3a33.44,33.44,0,0,1,4.28,10.74A21.93,21.93,0,0,1,88.83,209.56Z" style="fill:#e0e0e0"></path><path d="M77,224.71a14.1,14.1,0,0,1-1.37-4.14c-.07-1-.14-2-.12-3a7.79,7.79,0,0,1,0-1.93A3.79,3.79,0,0,1,79,213a2.3,2.3,0,0,0,.91-.08c.51-.22.69-.83,1-1.29a2.28,2.28,0,0,1,2.18-.93,1.26,1.26,0,0,0,.61,0c.23-.08.36-.3.52-.48a2.29,2.29,0,0,1,2.41-.45c1.65.58,2.81,2.09,3.85,3.4A2.35,2.35,0,0,1,91,214c.27,1-.28,2.41-.53,3.33a4.61,4.61,0,0,1-1.82,2.19c-.62,2.23-1.45,2.47-2.45,2.71-.47,2.1-1.89,2.12-2.75,2.59-.44,1.36-1.76,1.86-2.21.87a6.29,6.29,0,0,1-.51-2.07c0-.26,0-.72-.13-.94a2.17,2.17,0,0,0-.85-.54,4.34,4.34,0,0,1-1.2,1.66A3.9,3.9,0,0,1,77,224.71Z" style="fill:#b16668"></path><path d="M89,216.35a4.09,4.09,0,0,0-1.15-2.58c-.8-.86-1.62-1.71-2.47-2.52a1.31,1.31,0,0,0-.68-.41c0,.1,0,.21.11.3.39.43.8.84,1.19,1.26s1,1,1.41,1.6a8.29,8.29,0,0,1,.72,1,3.21,3.21,0,0,1,.47,1.64c0,.9,0,1.8,0,2.71,0,0,0,0,0,0A7.73,7.73,0,0,0,89,216.35Z" style="fill:#9a4a4d"></path><path d="M85.65,217a23.6,23.6,0,0,0-2-2c-.75-.75-1.52-1.48-2.32-2.18-.1-.09-.2.13-.13.21.64.72,1.3,1.42,2,2.11s1.34,1.29,2,2a4.07,4.07,0,0,1,1.13,2.08c.11.71,0,1.41.06,2.12,0,.1.11,0,.12,0A5.32,5.32,0,0,0,85.65,217Z" style="fill:#9a4a4d"></path><path d="M83.88,222.22c.07-.44.14-.88.2-1.32a2.58,2.58,0,0,0-.36-2,10.37,10.37,0,0,0-1.66-1.65,22.43,22.43,0,0,0-2.23-1.64c-.08-.05-.18.15-.11.2.67.51,1.31,1.05,2,1.62A15.9,15.9,0,0,1,83.29,219a2,2,0,0,1,.48,1,5.88,5.88,0,0,1-.15,2.09,21.87,21.87,0,0,0-.27,2.3s0,.07,0,.06a2.6,2.6,0,0,0,.21-.83c.07-.3.13-.61.19-.91Z" style="fill:#9a4a4d"></path></g></g></g><g id="freepik--Lines--inject-20"><g id="freepik--lines--inject-20"><path d="M111.59,470.87a32.44,32.44,0,0,1-10-5.93,35.19,35.19,0,0,1-7.39-9.08,46,46,0,0,1-5.77-22.45,48.63,48.63,0,0,0,.72,5.77,54.25,54.25,0,0,0,1.31,5.64,46.24,46.24,0,0,0,4.42,10.65,36.32,36.32,0,0,0,7.11,9q.53.51,1.08,1c.37.3.74.62,1.12.92.78.56,1.53,1.17,2.36,1.67A41.07,41.07,0,0,0,111.59,470.87Z" style="fill:#e0e0e0"></path><path d="M97.37,444.37a26,26,0,0,1-2.24-7.28,27.53,27.53,0,0,0,1.21,3.59c.46,1.17,1,2.31,1.57,3.43a50.12,50.12,0,0,0,3.93,6.42,41.54,41.54,0,0,0,4.9,5.69,27.81,27.81,0,0,0,2.87,2.44c.51.36,1,.74,1.54,1.09s1.09.64,1.63,1c-.57-.25-1.15-.52-1.73-.79s-1.1-.64-1.66-.95a28.52,28.52,0,0,1-3.06-2.31A33.36,33.36,0,0,1,101.2,451,38.62,38.62,0,0,1,97.37,444.37Z" style="fill:#e0e0e0"></path><path d="M450.7,403.06a32.3,32.3,0,0,0-1.77-11.51,35.1,35.1,0,0,0-5.68-10.24,44.41,44.41,0,0,0-8.49-8.06,44.87,44.87,0,0,0-10.21-5.64,45.73,45.73,0,0,1,5.09,2.81,53.89,53.89,0,0,1,4.76,3.31,46.24,46.24,0,0,1,8.23,8.07,36,36,0,0,1,5.73,10,12.78,12.78,0,0,1,.49,1.35c.15.46.31.92.44,1.38.23.94.51,1.86.67,2.81A39.8,39.8,0,0,1,450.7,403.06Z" style="fill:#e0e0e0"></path><path d="M431.4,380a26.21,26.21,0,0,0-5.93-4.78,27,27,0,0,1,2.88,2.45,37.16,37.16,0,0,1,2.6,2.73,49.57,49.57,0,0,1,4.5,6,42.17,42.17,0,0,1,3.46,6.67,27.21,27.21,0,0,1,1.2,3.57c.14.61.31,1.22.43,1.83s.19,1.25.3,1.88c0-.63,0-1.27-.09-1.9s-.18-1.26-.27-1.9a27.53,27.53,0,0,0-1-3.69,33.72,33.72,0,0,0-3.36-6.88A38.77,38.77,0,0,0,431.4,380Z" style="fill:#e0e0e0"></path><path d="M321.44,83.22a32.42,32.42,0,0,0,4-10.94,35.14,35.14,0,0,0,0-11.71,44,44,0,0,0-3.56-11.16,44.94,44.94,0,0,0-6.22-9.86,46.69,46.69,0,0,1,3.1,4.92,51.05,51.05,0,0,1,2.57,5.19,46.09,46.09,0,0,1,3.33,11,36.24,36.24,0,0,1,.23,11.48c-.06.48-.13,1-.23,1.43s-.17,1-.28,1.42c-.25.93-.45,1.87-.77,2.78A39.65,39.65,0,0,1,321.44,83.22Z" style="fill:#e0e0e0"></path><path d="M315.63,53.71a25.93,25.93,0,0,0-2.89-7,25.23,25.23,0,0,1,1.34,3.54c.39,1.2.7,2.42,1,3.65a50.75,50.75,0,0,1,1,7.45,41.85,41.85,0,0,1-.18,7.51,29,29,0,0,1-.67,3.7c-.17.61-.32,1.22-.51,1.83s-.43,1.18-.64,1.78q.42-.84.84-1.71c.24-.59.45-1.19.68-1.79a29.64,29.64,0,0,0,.9-3.72,33.77,33.77,0,0,0,.36-7.65A37.88,37.88,0,0,0,315.63,53.71Z" style="fill:#e0e0e0"></path></g></g><g id="freepik--Confetti--inject-20"><g id="freepik--confetti--inject-20"><path d="M342,150.28s-.29,5.24,3.6,8.15l4.07-1.24s-2.72-1.31-4.07-6.91Z" style="fill:#455a64"></path><path d="M161.12,107.3s-.29,5.23,3.59,8.14l4.08-1.23s-2.72-1.31-4.08-6.91Z" style="fill:#BA68C8"></path><path d="M384.19,159.72s-.28,5.23,3.6,8.14l4.08-1.23s-2.73-1.31-4.08-6.91Z" style="fill:#37474f"></path><path d="M487,56.92s-2.37,4.67-7.19,5.24L477,59.05s3,.23,7-3.94Z" style="fill:#455a64"></path><path d="M458.23,215.43s-2.37,4.67-7.19,5.24l-2.91-3.11s3,.23,7-3.94Z" style="fill:#455a64"></path><path d="M314.19,133.83l-2.9-3.12s3,.24,7-3.93l3.12,1.8" style="fill:#455a64"></path><path d="M146.94,40.83s.29,5.23-3.59,8.14l-4.08-1.24s2.72-1.31,4.08-6.9Z" style="fill:#455a64"></path><path d="M169.37,188.56s.29,5.24-3.59,8.15l-4.08-1.24s2.72-1.31,4.08-6.91Z" style="fill:#455a64"></path><path d="M30.62,91.33s5.16.93,8.53-2.57l-.73-4.19s-1.63,2.54-7.36,3.19Z" style="fill:#455a64"></path><path d="M51.25,319.53s2.37,4.68,7.19,5.25l2.91-3.11s-3,.23-7-3.94Z" style="fill:#455a64"></path><path d="M365.4,111.6s-2.37,4.67-7.2,5.25l-2.9-3.12s3,.24,7-3.93Z" style="fill:#BA68C8"></path><path d="M416.1,71.56s-5.2.64-8.37-3l1-4.15s1.49,2.63,7.17,3.6Z" style="fill:#BA68C8"></path><path d="M483.2,253s-5.2.64-8.36-3l1-4.15s1.49,2.63,7.17,3.6Z" style="fill:#BA68C8"></path><path d="M343.65,48.47s-5.2.64-8.37-3l1-4.15s1.49,2.63,7.17,3.6Z" style="fill:#BA68C8"></path><path d="M311.22,197.09s-5.2.64-8.37-3l1-4.15s1.49,2.63,7.17,3.6Z" style="fill:#BA68C8"></path><path d="M486.76,117.41s-4.73,2.25-8.9-.24l-.4-4.24s2.24,2,7.94,1.15Z" style="fill:#BA68C8"></path><path d="M164.47,69.92s5.2.65,8.37-3l-1-4.15s-1.49,2.63-7.17,3.59Z" style="fill:#BA68C8"></path><path d="M39.15,38.39s5.2.64,8.36-3l-.95-4.14s-1.49,2.62-7.17,3.59Z" style="fill:#BA68C8"></path><path d="M119,185.54s5.2.65,8.37-3l-.95-4.15s-1.49,2.62-7.17,3.59Z" style="fill:#BA68C8"></path><path d="M199.37,340s5.14-1,7-5.5l-2.21-3.64s-.59,3-5.69,5.65Z" style="fill:#BA68C8"></path><path d="M41.74,235.71s5.2.65,8.37-3l-1-4.15s-1.49,2.63-7.16,3.6Z" style="fill:#BA68C8"></path><path d="M121.23,141.19s.32,5.23,4.52,7.67l3.9-1.7s-3.48-.91-5.48-6.32Z" style="fill:#455a64"></path><path d="M113.68,145.45s-1.19,5.1,2.13,8.64l4.23-.51a13.43,13.43,0,0,1-3.43-7.62Z" style="fill:#37474f"></path><path d="M323,216.05s-2.37,4.67-7.19,5.24l-2.91-3.11s3.56.55,7.53-3.62Z" style="fill:#455a64"></path><path d="M456.83,333.26s-3.32,4.06-8.15,3.59l-2.18-3.66s2.89.87,7.67-2.36Z" style="fill:#455a64"></path><path d="M165.54,308.78s-.83,5.17-5.25,7.19l-3.72-2.08s2.94-.7,5.46-5.88Z" style="fill:#455a64"></path><path d="M35,404.76s1.32,5.08,5.91,6.66l3.5-2.42s-3-.41-6-5.33Z" style="fill:#455a64"></path><path d="M471.44,366.78s-5.22-.48-7.53-4.75l1.82-3.85s.9,2.88,6.24,5Z" style="fill:#BA68C8"></path><path d="M341,380.12s-5.22-.47-7.53-4.74l1.82-3.85s.9,2.88,6.24,5Z" style="fill:#BA68C8"></path><path d="M176.45,402.29s5.24.11,8-3.88l-1.37-4s-1.21,2.77-6.76,4.31Z" style="fill:#BA68C8"></path><path d="M357.84,409.45s-3.31,4.06-8.14,3.59l-2.18-3.66s3.36,1.29,8.13-1.93Z" style="fill:#455a64"></path><path d="M224.46,42.48s-.92,5.16-5.38,7.09l-3.68-2.14a13.54,13.54,0,0,0,6.18-5.64Z" style="fill:#37474f"></path><path d="M36.31,171.27c-.15-.05-.18.24-.07.3,3.72,2.08,7.64,9.48,1.93,11.49a8.3,8.3,0,0,1-1.24.32c-.32-2.53-1.86-4.81-4.83-4.1a.35.35,0,0,0-.22.25c-.69,3.4,1.84,4.81,4.54,4.6a7.45,7.45,0,0,1-.63,3.19c-1.81,3.78-6,2.47-8.93,1-.17-.08-.23.26-.11.35,3.63,2.6,8.64,2.66,10-2.31a7.4,7.4,0,0,0,.23-2.27,6.76,6.76,0,0,0,3.3-1.48C44,179.41,40.28,172.45,36.31,171.27Zm-3.54,11c-.78-.94-1-2.44.36-2.61a2.63,2.63,0,0,1,1.79.71,4.61,4.61,0,0,1,1.46,3.05A4,4,0,0,1,32.77,182.29ZM101.41,57.74c-1.82,2.35-5.32,5-8.25,2.87a4.11,4.11,0,0,1-1.24-1.46,3.29,3.29,0,0,0,1.27-.58c1.28-1,3-3.68,2.07-5.35-.56-1-1.74-1-2.65-.41-1.61,1-2,3-1.76,4.76a6.58,6.58,0,0,0,.25,1.06c-1.78,0-3-2.19-3.08-4.07-.09-3.07,2.09-6.34,4.48-8.11.11-.08-.07-.27-.17-.21-3.39,2.2-6.5,7.87-3.6,11.63a3.23,3.23,0,0,0,2.61,1.35c1.92,4.4,8,2.68,10.36-1.23C101.79,57.85,101.53,57.59,101.41,57.74Zm-9-3.87c.63-.62,1.77-1.12,2.4-.27.91,1.21-1.22,4-2.21,4.61a3.36,3.36,0,0,1-.9.37A4.37,4.37,0,0,1,92.36,53.87ZM198.81,263.39c-.2-.09-.58.3-.33.44,2.68,1.54,3.81,4.57,3.78,7.55,0,2.21-.84,4.9-3.38,5.22h-.37c.79-2.94-1.59-5.36-4.83-6.22a.55.55,0,0,0-.62.2c-1.64,3,1.26,6,4.27,6.62a6.46,6.46,0,0,1-.73,1.18c-2.33,3-6.22,3.34-9.62,2.37-.19-.05-.46.29-.25.39a8.92,8.92,0,0,0,10.81-2.58,6.83,6.83,0,0,0,.72-1.26,4.43,4.43,0,0,0,1.1-.08C205.62,276,203.52,265.3,198.81,263.39Zm-1.22,13.14a5.89,5.89,0,0,1-3-1.68c-.55-.58-2-3.21-.75-3.63.64-.21,2.37,1.09,2.8,1.53a3.64,3.64,0,0,1,1,1.91A3.82,3.82,0,0,1,197.59,276.53Zm-145.83,11c-2.27,3.16-7,5.52-10.89,4.1a6,6,0,0,1-3.79-5.11,4.19,4.19,0,0,0,2.25,0c3.33-1,3.72-7-.58-5.47-1.94.68-2.63,2.46-2.55,4.42-4.81-1.88-9-10-4.22-13.06.12-.08,0-.35-.13-.29-3.91,2-2.64,6.67-.64,9.6a13,13,0,0,0,5.07,4.54c.36,2.47,1.84,5,3.6,5.89,4.21,2.07,9.91-.52,12.1-4.37C52.06,287.61,51.88,287.32,51.76,287.49ZM37,285.31c0-1,2-5.13,3.54-3.48a3,3,0,0,1,.12,2.88,2.62,2.62,0,0,1-1.78,1.05,4.56,4.56,0,0,1-1.87-.08C37,285.56,37,285.43,37,285.31ZM370.44,75.5c-3.53-.45-11.13,2.53-9.15,7.35a3.5,3.5,0,0,0,.6,1c-4.16,2.51-6.13,9.14-.76,12.18.24.14.24-.27.09-.38A6.15,6.15,0,0,1,359.69,87a8.34,8.34,0,0,1,2.71-2.64c1.81,1.59,5,2.12,6.21-.2a.36.36,0,0,0-.18-.44,6.21,6.21,0,0,0-6-.18,2.92,2.92,0,0,1-.61-2.59c.86-3.62,5.48-4.94,8.7-5C370.76,75.94,370.62,75.53,370.44,75.5ZM363,84c1-.48,3.54-1.15,4.47-.16.19.19.29.2.33.18a.54.54,0,0,0-.13.23c-.14.33-.58.51-.9.63a3.65,3.65,0,0,1-2.42-.08,4.39,4.39,0,0,1-1.38-.79ZM202.29,152.26c-.22,0-.37.55-.09.56,3.09.1,5.5,2.26,6.87,4.9,1,2,1.54,4.74-.56,6.2a2,2,0,0,1-.32.18c-.67-3-3.91-4-7.18-3.25a.56.56,0,0,0-.45.47c-.05,3.43,3.91,4.72,6.87,3.86a6.42,6.42,0,0,1-.1,1.39c-.68,3.71-4,5.85-7.41,6.58-.19,0-.27.47,0,.46a8.93,8.93,0,0,0,8.36-7.32,7.22,7.22,0,0,0,.05-1.45,4.68,4.68,0,0,0,.93-.58C214.17,160.2,207.35,151.76,202.29,152.26Zm1.65,12.09c-.76-.26-3.3-1.88-2.36-2.85.47-.49,2.6-.15,3.19,0a3.67,3.67,0,0,1,1.81,1.21,3.78,3.78,0,0,1,.76,1.71A5.86,5.86,0,0,1,203.94,164.35ZM455.07,31.29a3.8,3.8,0,0,0,.56-3.35c-1.45-5.33-8.9-6.44-13.32-4.83-.13,0-.08.35.08.31,3.32-1,7.88-.71,10.67,1.54,1.71,1.37,2.83,4,1.61,5.71a7.71,7.71,0,0,0-.81-1c-1.41-1.48-3.61-2.53-5.65-1.71-1.15.45-2.06,1.5-1.48,2.75.91,2,4.62,2.34,6.42,1.83a3.86,3.86,0,0,0,1.43-.77,5,5,0,0,1,.48,2.18c-.1,4.21-5,5.6-8.46,5.64-.23,0-.17.43,0,.45C452,40.58,457.82,36.18,455.07,31.29Zm-1.81.44c-1.24.5-5.34.5-5.83-1.2-.34-1.17.92-1.88,1.93-2a5.07,5.07,0,0,1,4.87,2.65A3.61,3.61,0,0,1,453.26,31.73Zm27.67,143.33c-.15,0-.13.3,0,.32,5.69.45,5.71,9.63,2.31,13.53-.83-1.78-2.27-3-4.3-2.74-4.51.66-1.39,5.79,2,5.11a4.19,4.19,0,0,0,2-1,6.06,6.06,0,0,1-1,6.29c-2.78,3.05-8.07,3.16-11.55,1.41-.18-.09-.21.24-.08.33,3.73,2.39,10,2,12.75-1.74,1.16-1.59,1.28-4.53.46-6.89a13,13,0,0,0,2.39-6.37C486.35,179.74,485.3,175,480.93,175.06Zm.09,15.38a2.58,2.58,0,0,1-2.07-.11,3,3,0,0,1-1.22-2.6c.65-2.2,4.27.58,4.75,1.44.06.11.11.23.16.34A4.71,4.71,0,0,1,481,190.44Zm-13.52-94c-2.35,2.35-5.88,4.9-8.79,1.88a7.33,7.33,0,0,1-1.6-2.82c2.63-.65,4.59-2.79,2.86-5.8a.33.33,0,0,0-.29-.17c-3,.26-3.78,2.91-3.29,5.41a7.18,7.18,0,0,1-1.29.09c-6-.11-4.65-8.37-1.78-11.51.09-.09,0-.36-.16-.27-3.39,2.37-4.69,10.14-.2,12a6.65,6.65,0,0,0,3.59.36,7.73,7.73,0,0,0,.94,2.08c2.85,4.29,7.6,2.66,10.22-1C467.79,96.58,467.63,96.27,467.5,96.4Zm-10.14-5a2.52,2.52,0,0,1,1.47-1.23c1.36-.28,1.61,1.22,1.17,2.36a4.08,4.08,0,0,1-3.07,2.23A4.61,4.61,0,0,1,457.36,91.43ZM365.15,192.89c-2.66,1.3-5.92,1.56-8.27-.54a5.32,5.32,0,0,1-.78-.86c2.39-1,4.34-3.84,2.55-6.07a.45.45,0,0,0-.54-.08c-2.54,1.18-4.15,3.53-3.06,5.83a1.65,1.65,0,0,1-.31,0c-2.13.11-3.21-2-3.55-3.8a6.93,6.93,0,0,1,2-6.76c.18-.15-.19-.42-.35-.32-3.59,2.27-3.76,11.34,1.59,11.48a4,4,0,0,0,.91-.1,5.83,5.83,0,0,0,.78.93,7.45,7.45,0,0,0,9.27.53C365.57,193.06,365.29,192.82,365.15,192.89Zm-9.74-3.44a3.14,3.14,0,0,1,.57-1.73c.29-.43,1.53-1.74,2.09-1.67,1.11.16.27,2.54-.09,3.1a5,5,0,0,1-2.19,1.82A3.2,3.2,0,0,1,355.41,189.45ZM59.29,380.76c-2.66,1.29-5.92,1.56-8.27-.54a5.39,5.39,0,0,1-.78-.87c2.39-1,4.34-3.83,2.54-6.07a.45.45,0,0,0-.53-.07c-2.54,1.18-4.15,3.52-3.07,5.83l-.3,0c-2.14.11-3.22-2-3.56-3.8a7,7,0,0,1,2-6.76c.18-.15-.18-.42-.34-.32-3.59,2.27-3.76,11.34,1.59,11.47a4.07,4.07,0,0,0,.91-.09,5.37,5.37,0,0,0,.78.92,7.45,7.45,0,0,0,9.27.54C59.71,380.92,59.43,380.69,59.29,380.76Zm-9.74-3.45a3.13,3.13,0,0,1,.57-1.72c.29-.43,1.53-1.75,2.08-1.67,1.12.16.28,2.54-.08,3.1a4.94,4.94,0,0,1-2.19,1.81A3.17,3.17,0,0,1,49.55,377.31ZM313,252c-6.66-1.9-12,7.85-9.59,12.61a21.53,21.53,0,0,0-1.7,2.11,8.64,8.64,0,0,0-1.94,5.85c.23,2.6,2.3,4.61,3.94,6.46.07.09.27.1.19-.06-1.76-3.5-4.73-5.73-2.7-10.06a16.92,16.92,0,0,1,2.52-3.79,4.82,4.82,0,0,0,3.82,2c2.88.23,3.12-3.36.83-4.53-1.4-.71-2.91.12-4.19,1.29a5.82,5.82,0,0,1-.59-3.14,9.31,9.31,0,0,1,9.42-8.34C313.32,252.35,313.24,252,313,252Zm-5.86,11a2.19,2.19,0,0,1,1.9,2.07c.07,1.62-1.5,1.5-2.58,1a4.66,4.66,0,0,1-2-1.71A4.3,4.3,0,0,1,307.18,262.94ZM226.38,408c-6.67-1.91-12,7.84-9.59,12.6a24.2,24.2,0,0,0-1.7,2.11,8.65,8.65,0,0,0-1.94,5.86c.23,2.59,2.3,4.61,3.94,6.46.07.08.27.09.19-.06-1.76-3.51-4.73-5.73-2.71-10.06a17.4,17.4,0,0,1,2.53-3.8,4.85,4.85,0,0,0,3.82,2c2.88.22,3.12-3.37.83-4.53-1.4-.72-2.91.11-4.19,1.28a5.73,5.73,0,0,1-.59-3.14,9.3,9.3,0,0,1,9.42-8.33C226.66,408.36,226.58,408.05,226.38,408ZM220.52,419a2.2,2.2,0,0,1,1.9,2.08c.07,1.61-1.5,1.49-2.58,1a4.68,4.68,0,0,1-2-1.72A4.35,4.35,0,0,1,220.52,419ZM352.19,321c-3,1.48-7.12,2.8-8.93-1a7.38,7.38,0,0,1-.63-3.18c2.7.21,5.23-1.2,4.54-4.6A.34.34,0,0,0,347,312c-3-.71-4.51,1.57-4.83,4.1a6.72,6.72,0,0,1-1.25-.32c-5.7-2-1.78-9.41,1.94-11.48.11-.07.08-.35-.07-.31-4,1.18-7.65,8.15-4,11.32a6.68,6.68,0,0,0,3.29,1.48,7.68,7.68,0,0,0,.24,2.27c1.36,5,6.37,4.91,10,2.31C352.42,321.26,352.36,320.92,352.19,321Zm-8.06-7.92a2.57,2.57,0,0,1,1.78-.7c1.39.16,1.15,1.66.37,2.61a4.09,4.09,0,0,1-3.61,1.15A4.61,4.61,0,0,1,344.13,313.09Zm123.7,132.1c-3,1.48-7.12,2.79-8.93-1a7.42,7.42,0,0,1-.63-3.19c2.7.22,5.23-1.19,4.54-4.59a.34.34,0,0,0-.22-.26c-3-.71-4.51,1.57-4.83,4.1a7.61,7.61,0,0,1-1.25-.32c-5.7-2-1.78-9.41,1.93-11.49.12-.06.09-.34-.06-.3-4,1.18-7.65,8.15-4,11.32A6.77,6.77,0,0,0,457.7,441a7.72,7.72,0,0,0,.24,2.27c1.35,5,6.37,4.91,10,2.31C468.06,445.44,468,445.1,467.83,445.19Zm-8.06-7.92a2.55,2.55,0,0,1,1.78-.7c1.39.16,1.15,1.66.37,2.61a4.05,4.05,0,0,1-3.61,1.14A4.61,4.61,0,0,1,459.77,437.27Z" style="fill:#BA68C8"></path></g></g></svg>
