<?xml version="1.0" standalone="no"?>
<!DOCTYPE svg PUBLIC "-//W3C//DTD SVG 20010904//EN"
 "http://www.w3.org/TR/2001/REC-SVG-20010904/DTD/svg10.dtd">
<svg version="1.0" xmlns="http://www.w3.org/2000/svg"
 width="48.000000pt" height="48.000000pt" viewBox="0 0 48.000000 48.000000"
 preserveAspectRatio="xMidYMid meet">

<g transform="translate(0.000000,48.000000) scale(0.100000,-0.100000)"
fill="#000000" stroke="none">
<path d="M190 430 c0 -5 -11 -10 -25 -10 -23 0 -65 -34 -65 -52 0 -4 -9 -8
-20 -8 -11 0 -20 -7 -20 -15 0 -13 23 -15 151 -15 l151 0 -7 -80 c-6 -68 -5
-80 8 -80 11 0 17 19 22 80 5 58 11 80 21 80 8 0 14 7 14 15 0 8 -9 15 -20 15
-11 0 -20 4 -20 8 0 18 -42 52 -65 52 -14 0 -25 5 -25 10 0 6 -22 10 -50 10
-27 0 -50 -4 -50 -10z m150 -55 c11 -13 -1 -15 -100 -15 -99 0 -111 2 -100 15
9 11 34 15 100 15 66 0 91 -4 100 -15z"/>
<path d="M94 258 c3 -24 8 -72 12 -108 9 -94 17 -100 135 -100 90 0 99 2 113
22 19 27 22 82 4 76 -7 -3 -15 -18 -18 -34 l-5 -29 -95 0 -95 0 -6 50 c-4 28
-10 76 -14 108 -5 42 -11 57 -22 57 -12 0 -14 -8 -9 -42z"/>
</g>
</svg>
