<?xml version="1.0" standalone="no"?>
<!DOCTYPE svg PUBLIC "-//W3C//DTD SVG 20010904//EN"
 "http://www.w3.org/TR/2001/REC-SVG-20010904/DTD/svg10.dtd">
<svg version="1.0" xmlns="http://www.w3.org/2000/svg"
 width="48.000000pt" height="48.000000pt" viewBox="0 0 48.000000 48.000000"
 preserveAspectRatio="xMidYMid meet">

<g transform="translate(0.000000,48.000000) scale(0.100000,-0.100000)"
fill="#000000" stroke="none">
<path d="M139 433 c-10 -11 -15 -58 -17 -167 -2 -104 -7 -156 -16 -166 -25
-30 -30 -46 -9 -27 21 18 21 18 35 -10 13 -28 14 -28 108 -28 91 0 95 1 107
25 9 17 13 74 13 175 0 125 3 155 17 175 16 24 16 24 0 11 -16 -13 -20 -12
-33 7 -14 20 -24 22 -103 22 -70 0 -91 -3 -102 -17z m190 -16 c18 -22 2 -27
-89 -27 -91 0 -107 5 -89 27 16 18 162 18 178 0z m-21 -72 c-16 -13 -28 -28
-28 -33 0 -4 -25 -35 -55 -67 -30 -33 -55 -62 -55 -66 0 -4 -7 -12 -15 -19
-13 -11 -15 1 -15 99 l0 111 98 0 97 -1 -27 -24z m28 -212 c-6 -15 -186 -19
-186 -4 0 5 11 18 25 29 14 11 25 23 25 27 0 14 85 114 98 115 6 0 12 6 12 13
0 7 6 19 13 26 10 10 13 -8 15 -90 1 -57 0 -109 -2 -116z m0 -38 c13 -33 -15
-45 -102 -45 -74 0 -83 2 -89 20 -11 34 3 40 96 40 71 0 91 -3 95 -15z"/>
<path d="M175 319 c-4 -6 -5 -13 -2 -16 7 -7 27 6 27 18 0 12 -17 12 -25 -2z"/>
<path d="M230 320 c0 -5 7 -10 16 -10 8 0 12 5 9 10 -3 6 -10 10 -16 10 -5 0
-9 -4 -9 -10z"/>
<path d="M174 259 c-3 -6 -1 -16 5 -22 8 -8 11 -5 11 11 0 24 -5 28 -16 11z"/>
<path d="M290 250 c0 -19 3 -21 12 -12 9 9 9 15 0 24 -9 9 -12 7 -12 -12z"/>
<path d="M282 195 c-10 -12 -10 -18 0 -29 11 -12 15 -12 30 1 15 13 15 17 3
29 -16 17 -17 17 -33 -1z"/>
<path d="M230 180 c0 -5 5 -10 10 -10 6 0 10 5 10 10 0 6 -4 10 -10 10 -5 0
-10 -4 -10 -10z"/>
<path d="M223 78 c2 -7 10 -13 17 -13 7 0 15 6 18 13 2 7 -5 12 -18 12 -13 0
-20 -5 -17 -12z"/>
</g>
</svg>
