<?xml version="1.0" standalone="no"?>
<!DOCTYPE svg PUBLIC "-//W3C//DTD SVG 20010904//EN"
 "http://www.w3.org/TR/2001/REC-SVG-20010904/DTD/svg10.dtd">
<svg version="1.0" xmlns="http://www.w3.org/2000/svg"
 width="48.000000pt" height="48.000000pt" viewBox="0 0 48.000000 48.000000"
 preserveAspectRatio="xMidYMid meet">

<g transform="translate(0.000000,48.000000) scale(0.100000,-0.100000)"
fill="#000000" stroke="none">
<path d="M240 436 c0 -8 -11 -27 -24 -43 -23 -28 -24 -53 -2 -53 7 0 23 -11
36 -25 13 -14 27 -25 32 -25 13 0 9 22 -9 42 -9 10 -13 21 -10 24 8 8 87 -4
106 -15 17 -11 26 -94 17 -154 -6 -37 -11 -46 -31 -51 -32 -8 -33 -26 -2 -26
46 0 59 21 64 101 9 133 -11 163 -116 176 -45 5 -49 8 -41 24 14 25 12 39 -5
39 -8 0 -15 -6 -15 -14z"/>
<path d="M86 357 c-14 -11 -20 -31 -23 -88 -9 -133 11 -163 116 -176 45 -5 49
-8 41 -24 -14 -25 -12 -39 5 -39 8 0 15 6 15 14 0 8 11 27 24 43 23 28 24 53
2 53 -7 0 -23 11 -36 25 -13 14 -27 25 -32 25 -13 0 -9 -22 9 -42 9 -10 13
-21 10 -24 -8 -8 -87 4 -106 15 -17 11 -26 94 -17 154 6 37 11 46 31 51 14 4
25 11 25 16 0 15 -43 12 -64 -3z"/>
</g>
</svg>
