<?xml version="1.0" standalone="no"?>
<!DOCTYPE svg PUBLIC "-//W3C//DTD SVG 20010904//EN"
 "http://www.w3.org/TR/2001/REC-SVG-20010904/DTD/svg10.dtd">
<svg version="1.0" xmlns="http://www.w3.org/2000/svg"
 width="48.000000pt" height="48.000000pt" viewBox="0 0 48.000000 48.000000"
 preserveAspectRatio="xMidYMid meet">

<g transform="translate(0.000000,48.000000) scale(0.100000,-0.100000)"
fill="#000000" stroke="none">
<path d="M210 437 c-27 -9 -38 -20 -46 -47 -9 -26 -19 -36 -42 -42 -18 -5 -37
-18 -44 -31 -17 -30 -17 -214 0 -244 22 -39 121 -54 192 -30 27 9 38 20 46 47
9 26 19 36 42 42 42 11 53 36 59 127 6 88 -5 121 -57 165 -35 29 -89 34 -150
13z m90 -46 c0 -38 23 -61 62 -61 l31 0 -6 -77 c-5 -74 -15 -92 -44 -93 -9 0
-13 16 -13 45 0 26 -7 59 -15 74 -20 40 -72 81 -101 81 -17 0 -24 6 -24 19 0
21 37 39 83 40 23 1 27 -3 27 -28z m60 -6 c7 -9 10 -18 7 -21 -10 -11 -37 5
-37 21 0 19 14 19 30 0z m-150 -84 c0 -38 23 -61 61 -61 26 0 29 -3 29 -34 0
-18 -3 -54 -6 -79 -6 -40 -11 -47 -37 -56 -38 -14 -86 -14 -124 0 -25 8 -32
17 -37 47 -7 47 -7 107 0 154 7 40 31 56 87 57 23 1 27 -3 27 -28z m60 -6 c7
-9 10 -18 7 -21 -10 -11 -37 5 -37 21 0 19 14 19 30 0z"/>
</g>
</svg>
