<?xml version="1.0" standalone="no"?>
<!DOCTYPE svg PUBLIC "-//W3C//DTD SVG 20010904//EN"
 "http://www.w3.org/TR/2001/REC-SVG-20010904/DTD/svg10.dtd">
<svg version="1.0" xmlns="http://www.w3.org/2000/svg"
 width="24.000000pt" height="24.000000pt" viewBox="0 0 24.000000 24.000000"
 preserveAspectRatio="xMidYMid meet">

<g transform="translate(0.000000,24.000000) scale(0.100000,-0.100000)"
fill="#000000" stroke="none">
<path d="M85 211 c-6 -5 -21 -11 -35 -13 -24 -3 -25 -6 -25 -78 l0 -75 95 0
95 0 0 75 c0 72 -1 75 -25 78 -14 2 -29 8 -35 13 -12 12 -58 12 -70 0z m65
-11 c0 -5 14 -10 30 -10 l30 0 0 -70 0 -70 -90 0 -90 0 0 70 0 70 30 0 c17 0
30 5 30 10 0 6 14 10 30 10 17 0 30 -4 30 -10z"/>
<path d="M90 145 c-26 -32 13 -81 48 -59 22 14 27 41 12 59 -16 19 -44 19 -60
0z m55 -25 c0 -18 -6 -26 -23 -28 -24 -4 -38 18 -28 44 3 9 15 14 28 12 17 -2
23 -10 23 -28z"/>
</g>
</svg>
