<?xml version="1.0" standalone="no"?>
<!DOCTYPE svg PUBLIC "-//W3C//DTD SVG 20010904//EN"
 "http://www.w3.org/TR/2001/REC-SVG-20010904/DTD/svg10.dtd">
<svg version="1.0" xmlns="http://www.w3.org/2000/svg"
 width="48.000000pt" height="48.000000pt" viewBox="0 0 48.000000 48.000000"
 preserveAspectRatio="xMidYMid meet">

<g transform="translate(0.000000,48.000000) scale(0.100000,-0.100000)"
fill="#000000" stroke="none">
<path d="M66 414 c-12 -12 -16 -38 -16 -114 0 -129 1 -130 130 -130 129 0 130
1 130 130 0 129 -1 130 -130 130 -76 0 -102 -4 -114 -16z m219 -114 l0 -105
-105 0 -105 0 -3 94 c-1 52 0 101 2 108 4 11 29 13 108 11 l103 -3 0 -105z"/>
<path d="M170 350 c0 -13 -7 -20 -20 -20 -27 0 -25 -18 3 -22 21 -3 21 -4 -11
-37 -39 -40 -34 -54 8 -22 l30 22 30 -22 c42 -32 47 -18 8 22 -32 33 -32 34
-10 37 27 4 29 22 2 22 -13 0 -20 7 -20 20 0 11 -4 20 -10 20 -5 0 -10 -9 -10
-20z"/>
<path d="M340 301 c0 -6 15 -11 33 -13 l32 -3 0 -105 0 -105 -105 0 -105 0 -3
33 c-4 40 -22 43 -22 3 0 -52 20 -61 130 -61 129 0 130 1 130 130 0 76 -4 102
-16 114 -17 17 -74 22 -74 7z"/>
<path d="M322 170 c-10 -17 -10 -20 2 -20 8 0 18 -9 21 -20 3 -11 11 -20 16
-20 13 0 11 10 -9 47 -17 31 -18 32 -30 13z"/>
<path d="M237 133 c-10 -9 -9 -23 2 -23 5 0 11 7 15 15 5 15 -5 20 -17 8z"/>
</g>
</svg>
