<?xml version="1.0" standalone="no"?>
<!DOCTYPE svg PUBLIC "-//W3C//DTD SVG 20010904//EN"
 "http://www.w3.org/TR/2001/REC-SVG-20010904/DTD/svg10.dtd">
<svg version="1.0" xmlns="http://www.w3.org/2000/svg"
 width="48.000000pt" height="48.000000pt" viewBox="0 0 48.000000 48.000000"
 preserveAspectRatio="xMidYMid meet">

<g transform="translate(0.000000,48.000000) scale(0.100000,-0.100000)"
fill="#000000" stroke="none">
<path d="M75 405 c-24 -23 -25 -30 -25 -140 0 -110 1 -117 25 -140 23 -24 30
-25 140 -25 110 0 117 1 140 25 24 23 25 30 25 140 0 110 -1 117 -25 140 -23
24 -30 25 -140 25 -110 0 -117 -1 -140 -25z m263 -17 c8 -8 12 -45 12 -102 l0
-90 -33 32 c-36 35 -58 40 -77 17 -11 -13 -17 -11 -47 15 -40 36 -52 37 -87 9
l-26 -20 0 63 c0 37 5 69 12 76 17 17 229 17 246 0z m-176 -221 c-34 -34 -42
-38 -61 -28 -32 17 -27 56 12 90 l32 30 28 -27 27 -26 -38 -39z m145 31 c57
-55 43 -68 -70 -68 l-71 0 49 50 c27 28 51 50 54 50 3 0 20 -14 38 -32z"/>
<path d="M254 335 c-4 -9 -2 -21 4 -27 15 -15 44 -1 40 19 -4 23 -36 29 -44 8z"/>
<path d="M400 252 c0 -112 0 -114 -29 -143 -29 -29 -31 -29 -143 -29 -102 -1
-111 -2 -94 -15 14 -11 47 -15 113 -15 106 0 144 13 168 60 21 40 21 208 0
236 -13 17 -14 8 -15 -94z"/>
</g>
</svg>
