<?xml version="1.0" standalone="no"?>
<!DOCTYPE svg PUBLIC "-//W3C//DTD SVG 20010904//EN"
 "http://www.w3.org/TR/2001/REC-SVG-20010904/DTD/svg10.dtd">
<svg version="1.0" xmlns="http://www.w3.org/2000/svg"
 width="48.000000pt" height="48.000000pt" viewBox="0 0 48.000000 48.000000"
 preserveAspectRatio="xMidYMid meet">

<g transform="translate(0.000000,48.000000) scale(0.100000,-0.100000)"
fill="#000000" stroke="none">
<path d="M80 392 l0 -52 51 0 c45 0 50 2 39 15 -21 26 4 40 70 40 97 0 155
-58 155 -155 0 -91 -53 -149 -144 -158 -43 -4 -51 -8 -51 -25 0 -18 5 -19 56
-14 67 7 122 40 155 94 36 57 34 154 -3 210 -40 61 -90 88 -163 88 -36 0 -73
-6 -92 -16 -30 -16 -32 -16 -52 4 l-21 21 0 -52z"/>
<path d="M40 220 c0 -13 7 -20 20 -20 13 0 20 7 20 20 0 13 -7 20 -20 20 -13
0 -20 -7 -20 -20z"/>
<path d="M81 161 c-15 -10 -8 -41 9 -41 15 0 25 29 14 40 -5 5 -15 5 -23 1z"/>
<path d="M127 96 c-3 -8 1 -20 9 -27 13 -10 17 -10 25 2 5 8 7 19 6 24 -6 16
-34 17 -40 1z"/>
</g>
</svg>
