<?xml version="1.0" standalone="no"?>
<!DOCTYPE svg PUBLIC "-//W3C//DTD SVG 20010904//EN"
 "http://www.w3.org/TR/2001/REC-SVG-20010904/DTD/svg10.dtd">
<svg version="1.0" xmlns="http://www.w3.org/2000/svg"
 width="48.000000pt" height="48.000000pt" viewBox="0 0 48.000000 48.000000"
 preserveAspectRatio="xMidYMid meet">

<g transform="translate(0.000000,48.000000) scale(0.100000,-0.100000)"
fill="#000000" stroke="none">
<path d="M172 365 c-14 -16 -32 -25 -52 -25 -41 0 -50 -23 -50 -123 0 -117 0
-117 172 -117 168 0 168 0 168 119 0 98 -10 121 -50 121 -20 0 -38 9 -52 25
-17 20 -31 25 -68 25 -37 0 -51 -5 -68 -25z m116 -24 c10 -11 33 -24 52 -29
l35 -8 0 -85 0 -84 -135 0 -135 0 0 85 0 84 38 9 c21 5 44 18 50 28 16 26 73
25 95 0z"/>
<path d="M192 280 c-30 -28 -30 -82 0 -110 47 -43 118 -10 118 55 0 41 -32 75
-70 75 -14 0 -36 -9 -48 -20z m78 -24 c28 -35 -11 -93 -47 -70 -36 22 -23 84
17 84 10 0 23 -7 30 -14z"/>
</g>
</svg>
