<?xml version="1.0" standalone="no"?>
<!DOCTYPE svg PUBLIC "-//W3C//DTD SVG 20010904//EN"
 "http://www.w3.org/TR/2001/REC-SVG-20010904/DTD/svg10.dtd">
<svg version="1.0" xmlns="http://www.w3.org/2000/svg"
 width="48.000000pt" height="48.000000pt" viewBox="0 0 48.000000 48.000000"
 preserveAspectRatio="xMidYMid meet">

<g transform="translate(0.000000,48.000000) scale(0.100000,-0.100000)"
fill="#000000" stroke="none">
<path d="M310 375 c0 -12 -16 -15 -77 -17 l-78 -2 74 -3 c63 -3 74 -7 78 -23
7 -25 12 -25 43 0 l25 20 -25 20 c-30 24 -40 25 -40 5z"/>
<path d="M121 336 c-7 -8 -11 -32 -8 -53 l4 -38 1 42 c1 28 8 45 20 52 9 6 12
11 6 11 -6 0 -17 -6 -23 -14z"/>
<path d="M362 193 c-1 -28 -8 -45 -19 -52 -10 -6 -13 -11 -7 -11 22 0 35 29
31 67 l-4 38 -1 -42z"/>
<path d="M130 150 l-25 -20 25 -20 c30 -24 40 -25 40 -5 0 12 16 15 78 17 l77
2 -74 3 c-63 3 -74 7 -78 23 -7 25 -12 25 -43 0z"/>
</g>
</svg>
