<svg xmlns="http://www.w3.org/2000/svg" viewBox="0 0 500 500"><g id="freepik--background-complete--inject-45"><g><g><g><path d="M443.008,329.285h-180.746c-3.232,0-5.862-2.63-5.862-5.862V60.149c0-3.232,2.63-5.862,5.862-5.862h180.746c3.232,0,5.862,2.629,5.862,5.862V323.423c0,3.233-2.63,5.862-5.862,5.862ZM262.262,54.538c-3.095,0-5.612,2.518-5.612,5.612V323.423c0,3.095,2.518,5.612,5.612,5.612h180.746c3.095,0,5.612-2.517,5.612-5.612V60.149c0-3.094-2.518-5.612-5.612-5.612h-180.746Z" style="fill:#e0e0e0;"></path><path d="M234.58,329.285H53.834c-3.232,0-5.862-2.63-5.862-5.862V60.149c0-3.232,2.629-5.862,5.862-5.862H234.58c3.232,0,5.862,2.629,5.862,5.862V323.423c0,3.233-2.63,5.862-5.862,5.862ZM53.834,54.538c-3.094,0-5.612,2.518-5.612,5.612V323.423c0,3.095,2.518,5.612,5.612,5.612H234.58c3.095,0,5.612-2.517,5.612-5.612V60.149c0-3.094-2.518-5.612-5.612-5.612H53.834Z" style="fill:#e0e0e0;"></path></g><rect x="-.913" y="390.354" width="500" height=".25" style="fill:#e0e0e0;"></rect></g><rect x="50.76" y="404.619" width="16.06" height=".25" style="fill:#e0e0e0;"></rect><rect x="169.44" y="401.909" width="53.53" height=".25" style="fill:#e0e0e0;"></rect><rect x="67.82" y="413.909" width="36.25" height=".25" style="fill:#e0e0e0;"></rect><rect x="377.44" y="401.779" width="43.19" height=".25" style="fill:#e0e0e0;"></rect><rect x="429.54" y="401.779" width="6.33" height=".25" style="fill:#e0e0e0;"></rect><rect x="315.3" y="408.009" width="53.89" height=".25" style="fill:#e0e0e0;"></rect></g><g id="freepik--_Grupo_--inject-45"><g><path d="M199.607,245.405H79.007v-106.84l1.23-1.356c15.861-17.555,37.045-27.332,59.07-27.261h0c22.027-.066,43.213,9.71,59.08,27.261l1.22,1.356v106.84Zm-112.6-9.191h104.6v-93.72c-29.586-31.177-75.014-31.177-104.6,0v93.72Z" style="fill:#e0e0e0;"></path><polygon points="193.127 183.197 193.127 176.304 142.307 176.304 142.307 117.921 136.307 117.921 136.307 176.304 85.497 176.304 85.497 183.197 136.307 183.197 136.307 237.363 142.307 237.363 142.307 183.197 193.127 183.197" style="fill:#f0f0f0;"></polygon><path d="M203.607,250H75.007v-113.33l1.18-1.344c34.885-39.989,91.365-39.989,126.25,0l1.17,1.344v113.33Zm-120.6-9.19h112.6v-100.337c-31.474-34.65-81.126-34.65-112.6,0v100.337Z" style="fill:#f0f0f0;"></path></g><g><rect x="389.97" y="132.749" width="58.416" height="257.935" style="fill:#e0e0e0;"></rect><rect x="264.518" y="132.761" width="142.69" height="257.935" style="fill:#f0f0f0;"></rect><rect x="272.364" y="140.829" width="47.533" height="241.798" style="fill:#e0e0e0;"></rect><rect x="328.023" y="140.829" width="69.714" height="241.798" style="fill:#e0e0e0;"></rect><rect x="276.679" y="218.739" width="43.218" height="12.601" style="fill:#f0f0f0;"></rect><rect x="336.44" y="218.739" width="61.297" height="12.601" style="fill:#f0f0f0;"></rect><rect x="276.679" y="293.985" width="43.218" height="12.601" style="fill:#f0f0f0;"></rect><rect x="336.44" y="293.985" width="61.297" height="12.601" style="fill:#f0f0f0;"></rect><rect x="351.672" y="313.625" width="6.669" height="69.002" style="fill:#e6e6e6;"></rect><rect x="358.341" y="319.59" width="6.669" height="63.037" style="fill:#e6e6e6;"></rect><rect x="345.014" y="319.59" width="6.669" height="63.037" style="fill:#f5f5f5;"></rect><rect x="385.128" y="319.59" width="5.178" height="63.037" style="fill:#e6e6e6;"></rect><rect x="390.306" y="314.722" width="7.442" height="67.905" style="fill:#ebebeb;"></rect><rect x="365.01" y="319.59" width="10.054" height="63.037" style="fill:#f0f0f0;"></rect><rect x="375.063" y="315.639" width="10.054" height="66.988" style="fill:#e0e0e0;"></rect><rect x="391.427" y="236.823" width="6.669" height="57.565" style="fill:#e6e6e6;"></rect><rect x="384.758" y="241.803" width="6.669" height="52.585" style="fill:#e0e0e0;"></rect><rect x="359.473" y="241.803" width="5.178" height="52.585" style="fill:#e6e6e6;"></rect><rect x="352.031" y="237.741" width="7.442" height="56.648" style="fill:#ebebeb;"></rect><rect x="344.622" y="237.741" width="7.442" height="56.648" style="fill:#f0f0f0;"></rect><rect x="374.716" y="241.803" width="10.054" height="52.585" style="fill:#f0f0f0;"></rect><rect x="364.651" y="238.502" width="10.054" height="55.887" style="fill:#e0e0e0;"></rect><rect x="351.672" y="171.245" width="6.669" height="47.493" style="fill:#f5f5f5;"></rect><rect x="358.341" y="166.154" width="6.669" height="52.585" style="fill:#e6e6e6;"></rect><rect x="345.014" y="166.154" width="6.669" height="52.585" style="fill:#e6e6e6;"></rect><rect x="385.128" y="166.154" width="5.178" height="52.585" style="fill:#e6e6e6;"></rect><rect x="390.306" y="175.621" width="7.442" height="43.129" style="fill:#e6e6e6;"></rect><rect x="365.01" y="166.154" width="10.054" height="52.585" style="fill:#f0f0f0;"></rect><rect x="375.063" y="162.864" width="10.054" height="55.886" style="fill:#e0e0e0;"></rect><polygon points="318.687 220.496 298.938 179.18 279.178 220.496 318.687 220.496" style="fill:#e6e6e6;"></polygon><polygon points="279.178 220.496 298.938 179.18 298.938 220.496 279.178 220.496" style="fill:#f0f0f0;"></polygon><ellipse cx="297.694" cy="270.664" rx="11.219" ry="11.202" style="fill:#f5f5f5;"></ellipse><path d="M286.531,269.701v.85c-2.242,.336-3.676,.772-3.676,1.253,0,1.03,6.4,1.858,14.29,1.858s14.302-.828,14.302-1.858c0-.392-.919-.75-2.488-1.052v-.94c4.562,.459,7.509,1.175,7.509,1.992,0,1.388-8.63,2.518-19.289,2.518s-19.289-1.119-19.289-2.518c-.078-.884,3.396-1.656,8.641-2.104Z" style="fill:#e6e6e6;"></path><path d="M300.126,251.035c1.634,3.059,5.443,4.217,8.507,2.585,3.064-1.632,4.223-5.434,2.589-8.494-1.634-3.059-5.443-4.217-8.507-2.585h0c-3.064,1.632-4.223,5.435-2.589,8.494Z" style="fill:#f5f5f5;"></path><path d="M299.902,250.543c.058,.15,.125,.295,.202,.436-1.042,.772-1.614,1.354-1.491,1.589,.269,.504,3.654-.761,7.565-2.842,3.912-2.082,6.837-4.185,6.568-4.7-.101-.19-.65-.123-1.513,.145v-.056l-.247-.403c2.376-.974,4.024-1.399,4.237-.996,.37,.683-3.598,3.514-8.866,6.323-5.268,2.809-9.829,4.476-10.199,3.838-.247-.425,1.267-1.723,3.744-3.335Z" style="fill:#e6e6e6;"></path><path d="M282.754,240.975l-.594,1.198c-.201,.409-.591,.694-1.042,.761l-1.334,.19c-.764,.119-1.287,.834-1.168,1.598,.046,.293,.184,.565,.395,.775l.964,.94c.33,.319,.481,.779,.403,1.231l-.224,1.32c-.132,.755,.374,1.474,1.13,1.606,.303,.053,.615,.004,.887-.14l1.188-.627c.407-.213,.893-.213,1.3,0l1.188,.627c.679,.358,1.52,.098,1.878-.58,.143-.272,.193-.583,.14-.886l-.224-1.32c-.083-.452,.068-.916,.403-1.231l.953-.94c.552-.532,.567-1.411,.034-1.962-.216-.223-.5-.368-.807-.41l-1.322-.19c-.456-.062-.852-.347-1.054-.761l-.594-1.197c-.336-.689-1.168-.976-1.858-.64-.279,.136-.505,.361-.641,.64Z" style="fill:#f5f5f5;"></path><path d="M311.368,257.358l-.28,.571c-.1,.194-.288,.328-.504,.358l-.628,.09c-.361,.054-.61,.391-.555,.751,.021,.139,.086,.268,.186,.368l.459,.436c.155,.156,.226,.376,.191,.593l-.112,.615c-.057,.366,.193,.71,.56,.767,.138,.022,.279,0,.403-.062l.56-.302c.193-.101,.423-.101,.616,0l.56,.302c.333,.165,.736,.03,.902-.302,.062-.125,.084-.265,.062-.403l-.101-.615c-.041-.215,.026-.436,.179-.593l.459-.436c.258-.258,.257-.676-.001-.934-.1-.1-.229-.164-.368-.185l-.628-.09c-.213-.032-.397-.166-.493-.358l-.28-.571c-.16-.328-.556-.463-.884-.303-.132,.065-.239,.171-.303,.303Z" style="fill:#f5f5f5;"></path><rect x="288.884" y="331.138" width="26.216" height="5.707" style="fill:#e0e0e0;"></rect><rect x="276.253" y="331.138" width="13.102" height="5.707" style="fill:#f5f5f5;"></rect><rect x="290.207" y="336.846" width="21.878" height="45.781" style="fill:#e6e6e6;"></rect><rect x="279.268" y="336.846" width="10.48" height="45.781" style="fill:#f0f0f0;"></rect></g><g><path d="M358.33,62.041c-36.692-.038-73.183-5.407-108.33-15.94-62.22,18.58-116.08,17.58-150.32,13.47-33.5-4-55.28-11.73-59.4-13.27-.385-.136-.588-.558-.452-.944,.007-.019,.014-.038,.023-.056h0c.145-.38,.569-.572,.95-.43,4,1.51,25.7,9.2,59.11,13.2,34.12,4.09,87.8,5.07,149.82-13.48h.54c62,18.56,115.75,17.57,149.87,13.48,33.4-4,55-11.69,59.06-13.2,.381-.142,.805,.05,.95,.43h0c.167,.373,0,.811-.374,.978-.018,.008-.037,.016-.056,.022-4.12,1.54-25.9,9.25-59.4,13.27-13.935,1.658-27.957,2.483-41.99,2.47Z" style="fill:#e6e6e6;"></path><path d="M66.33,53.331l4.34,28.83,19.42-24.63s-10.76,4.63-23.76-4.2Z" style="fill:#ebebeb;"></path><path d="M320.76,60.421l9.45,27.16,12.34-25.19s-9.06,6.05-21.79-1.97Z" style="fill:#ebebeb;"></path><path d="M194.86,58.181s12.1,5.72,26.07-5.29l3.95,32.85-14.1-5.24-11.15,6.7-4.77-29.02Z" style="fill:#f0f0f0;"></path><path d="M194.86,58.181l4.77,29,11.15-6.7-2.62-21.39c-4.424,1.043-9.06,.726-13.3-.91Z" style="fill:#e0e0e0;"></path><path d="M284.68,54.481l3.12,6.35c.281,.58,.832,.981,1.47,1.07l7,1c1.086,.201,1.804,1.244,1.603,2.331-.07,.379-.248,.729-.513,1.01l-5.05,4.92c-.453,.454-.661,1.097-.56,1.73l1.19,6.94c.139,1.096-.636,2.097-1.732,2.236-.379,.048-.763-.013-1.108-.177l-6.24-3.28c-.566-.3-1.244-.3-1.81,0l-6.27,3.22c-.998,.473-2.191,.047-2.664-.952-.163-.345-.225-.73-.176-1.109l1.19-6.94c.101-.633-.107-1.276-.56-1.73l-5.05-4.92c-.759-.803-.722-2.069,.08-2.827,.28-.264,.631-.443,1.01-.513l7-1c.614-.086,1.15-.461,1.44-1.01l3.12-6.32c.521-.974,1.733-1.34,2.707-.819,.338,.181,.616,.455,.803,.789Z" style="fill:#f0f0f0;"></path><polygon points="382.91 61.211 377 78.781 392.02 93.501 398.65 73.361 382.91 61.211" style="fill:#f0f0f0;"></polygon><circle cx="138.747" cy="74.485" r="13.15" style="fill:#ebebeb;"></circle><path d="M125.66,73.361v1c-2.68,.39-4.32,.9-4.32,1.47,0,1.21,7.51,2.19,16.76,2.19s16.77-1,16.77-2.19c0-.46-1.08-.89-2.92-1.24v-1.11c5.35,.54,8.81,1.38,8.81,2.34,0,1.63-10.13,3-22.62,3s-22.61-1.32-22.61-3c-.09-.99,3.98-1.94,10.13-2.46Z" style="fill:#e6e6e6;"></path><path d="M421.92,66.321c1.49,5.821,7.417,9.332,13.238,7.842s9.332-7.417,7.842-13.238c-1.489-5.818-7.411-9.329-13.23-7.844-5.822,1.486-9.338,7.41-7.852,13.232l.002,.008Z" style="fill:#ebebeb;"></path><path d="M421.73,65.401c0,.27,.1,.55,.17,.82-2.07,.86-3.28,1.6-3.17,2,.25,1,6.47,.23,13.9-1.67,7.43-1.9,13.24-4.22,13-5.19-.09-.36-1-.48-2.59-.39v-.09c-.07-.27-.15-.53-.24-.79,4.4-.66,7.35-.69,7.54,.07,.34,1.31-7.51,4.45-17.53,7s-18.43,3.67-18.81,2.31c-.17-.83,2.91-2.39,7.73-4.07Z" style="fill:#e6e6e6;"></path></g></g></g><g id="freepik--Shadow--inject-45"><path d="M465.831,446.662c0,5.815-93.516,10.529-208.875,10.529s-208.875-4.714-208.875-10.529,93.516-10.529,208.875-10.529,208.875,4.714,208.875,10.529Z" style="fill:#f5f5f5;"></path></g><g id="freepik--Lines--inject-45"><path d="M250.171,158.481c-.113,0-.225-.051-.299-.147l-8.135-10.668c-.125-.165-.094-.4,.071-.526,.166-.126,.4-.094,.526,.071l8.135,10.668c.125,.165,.094,.4-.071,.526-.068,.052-.148,.077-.227,.077Z" style="fill:#263238;"></path><path d="M241.46,161.415c-.035,0-.07-.005-.105-.015l-7.292-2.132c-.199-.058-.313-.266-.255-.465,.058-.199,.266-.312,.465-.255l7.292,2.132c.199,.058,.313,.266,.255,.465-.048,.164-.197,.27-.36,.27Z" style="fill:#263238;"></path><path d="M273.013,161.407c-.132,0-.261-.07-.329-.195-.1-.182-.032-.41,.149-.509l6.664-3.649c.179-.098,.409-.033,.509,.149,.1,.182,.032,.41-.149,.509l-6.664,3.649c-.057,.031-.118,.046-.18,.046Z" style="fill:#263238;"></path><path d="M258.495,157.758c-.195,0-.359-.15-.374-.348l-1.539-21.029c-.015-.207,.14-.386,.347-.401,.23-.012,.386,.141,.401,.347l1.539,21.029c.015,.207-.14,.386-.347,.401h-.027Z" style="fill:#263238;"></path><path d="M265.021,157.758c-.087,0-.175-.03-.245-.092-.157-.135-.174-.372-.038-.529l7.992-9.222c.137-.156,.374-.172,.528-.038,.157,.135,.174,.372,.038,.529l-7.992,9.222c-.074,.085-.179,.129-.283,.129Z" style="fill:#263238;"></path></g><g id="freepik--Character_2--inject-45"><g><g><path d="M415.047,328.261l-29.243,8.224c-4.007,1.319-11.29,4.09-11.842,2.596-3.114-7.536-6.971-20.632-8.205-24.906l-25.506,22.144c3.775,6.965,21.311,27.481,24.77,29.071,8.99,4.145,55.552-26.17,55.552-26.17l-5.525-10.959Z" style="fill:#faac6d;"></path><g><path d="M419.028,339.184l-8.208-11.166c-.303-.36-.257-.898,.103-1.202l.03-.024h0l8.444-7.055c.963-.705,2.314-.502,3.028,.454,2.806,3.946,3.889,5.994,7.51,10.9,2.205,3.021,6.855,8.784,9.232,13.393,2.377,4.609-2.251,6.823-3.701,5.1-3.354-4.116-10.39-7.91-14.657-9.085-.723-.23-1.349-.692-1.782-1.315Z" style="fill:#263238;"></path><path d="M424.239,343.759c-.097,.587-.516,1.069-1.084,1.247-.337,.161-.733,.141-1.051-.054-1.367-.865-1.551-5.092-1.541-5.59,.013-.112,.078-.213,.174-.271,.1-.051,.221-.029,.297,.053,.855,.711,1.633,1.51,2.319,2.386,.559,.609,.874,1.403,.886,2.229Zm-1.79,.671c.158,.102,.358,.112,.525,.027,.346-.122,.607-.41,.695-.766,.12-.814-.793-2.167-2.401-3.7,.097,1.69,.493,3.974,1.241,4.452l-.061-.013Z" style="fill:#407BFF;"></path><path d="M421.179,339.313c.153,1.425-.851,4.442-2.097,5.006-.459,.211-1.004,.077-1.313-.322-.306-.335-.458-.784-.417-1.237,.245-1.701,3.32-3.608,3.398-3.677,.089-.035,.187-.036,.277-.005,.035,.028,.061,.067,.072,.111,.043,.028,.072,.072,.08,.123Zm-2.998,4.293c.224,.345,.506,.267,.65,.192,1.077-1.035,1.731-2.434,1.835-3.925-.974,.632-2.54,1.946-2.663,2.972-.05,.225,0,.461,.139,.646l.039,.115Z" style="fill:#407BFF;"></path></g></g><g><path d="M336.11,371.745c3.815,38.713,7.588,64.26,7.588,64.26l-9.87,2.181s-14.024-26.52-21.943-68.22c-1.908-10.012-3.306-20.115-4.188-30.269l27.675-12.821c-.789,11.512-.411,33.388,.739,44.869Z" style="fill:#faac6d;"></path><g><path d="M329.693,430.191l13.49-3.175c.45-.138,.927,.116,1.065,.566l.01,.037h0l3.181,10.534c.271,1.162-.445,2.326-1.604,2.608-4.73,1.034-7.039,1.228-12.972,2.637-3.643,.845-10.768,2.864-15.94,3.244-5.172,.38-5.395-4.745-3.241-5.404,5.101-1.472,11.35-6.458,14.103-9.923,.495-.575,1.166-.97,1.908-1.124Z" style="fill:#263238;"></path><path d="M323.441,433.192c-.502-.319-.781-.894-.722-1.486-.016-.373,.157-.73,.462-.946,1.332-.919,5.293,.569,5.746,.773,.098,.056,.165,.155,.181,.267,.008,.112-.06,.215-.165,.253-.989,.508-2.03,.91-3.104,1.198-.78,.275-1.633,.254-2.398-.059Zm.085-1.91c-.156,.105-.243,.285-.231,.473-.023,.366,.139,.719,.433,.939,.702,.43,2.304,.12,4.345-.758-1.592-.573-3.849-1.105-4.583-.603l.036-.051Z" style="fill:#407BFF;"></path><path d="M328.731,432.12c-1.371-.417-3.753-2.524-3.783-3.892-.014-.505,.322-.953,.811-1.082,.428-.15,.901-.114,1.301,.101,1.469,.893,2.018,4.468,2.051,4.567-.003,.095-.04,.187-.104,.257-.04,.022-.086,.03-.13,.023-.042,.029-.095,.038-.145,.025Zm-2.775-4.441c-.406,.071-.444,.361-.431,.523,.53,1.397,1.561,2.547,2.891,3.227-.2-1.144-.795-3.1-1.69-3.615-.188-.134-.424-.18-.649-.126l-.121-.009Z" style="fill:#407BFF;"></path></g></g><g><path d="M313.763,233.718c-7.259-4.906-27.732-11.919-32.314-17.502-2.946-3.59-13.773-27.681-13.773-27.681l-7.753,7.05s9.763,29.781,14.862,35.192c5.098,5.411,21.945,17.906,28.703,19.514,12.859,3.06,17.208-12.337,10.275-16.573Z" style="fill:#faac6d;"></path><path d="M261.055,196.493c-.455-.402-4.364-2.654-2.728-7.319,1.637-4.665,1.727-6.756,2.909-9.812,1.182-3.056,3.691-2.627,3.463-1.461,0,0,.901-5.616,3.174-8.592s2.546,0,2.546,0c0,0,.818-.402,1.455,1.287s-4.763,22.312-4.763,22.312l-6.057,3.585Z" style="fill:#faac6d;"></path><path d="M263.688,184.367c-.021,0-.043-.002-.064-.005-.204-.036-.341-.23-.305-.434l1.073-6.162c.034-.203,.22-.34,.434-.305,.204,.036,.341,.23,.305,.434l-1.073,6.162c-.031,.182-.189,.311-.369,.311Z" style="fill:#e97f3f;"></path><path d="M267.83,181.873c-.021,0-.043-.002-.064-.005-.204-.036-.341-.23-.305-.434,.18-1.032,.677-3.505,1.159-5.898,.48-2.388,.978-4.857,1.155-5.879,.035-.203,.222-.343,.434-.305,.204,.036,.341,.23,.305,.434-.18,1.032-.677,3.505-1.159,5.898-.48,2.388-.978,4.857-1.155,5.879-.031,.182-.189,.311-.369,.311Z" style="fill:#e97f3f;"></path></g><path d="M371.548,294.062c-3.725-16.636-62.693-7.038-65.656-6.452-2.963,.586-4.571,4.658-4.166,7.854,.406,3.196,1.546,4.755,1.546,4.755l1.076,1.233s70.924,9.245,67.199-7.391Z" style="fill:#407BFF;"></path><g><path d="M304.613,284.969s-.452,43.875,3.083,57.947l28.394-7.007s8.032,12.119,8.902,11.539c.87-.58,26.416-17.628,26.416-17.628l-5.196-16.611s-3.571-17.38-6.837-22.635l-54.762-5.605Z" style="fill:#263238;"></path></g><g><path d="M386.427,290.143s-3.22,1.82-4.026,4.762c-.807,2.942-2.232,5.086-2.681,7.313-.449,2.227,1.787,1.855,2.873,.585,1.085-1.27,2.512-4.228,3.324-3.271,.813,.957,2.733,11.628,4.012,12.826,1.279,1.198,1.51-.632,1.51-.632,0,0,.449,2.389,1.619,2.631,1.17,.242,1.34-1.349,1.34-1.349,0,0,.358,1.593,1.455,1.198,1.097-.394,.239-10.19,.446-10.597,0,0-.274,5.939,1.108,6.5,1.383,.562,1.708-2.736,2.024-5.362,.316-2.625-.315-5.788-1.321-8.278-1.254-3.106-2.236-7.674-5.34-7.923-3.104-.249-6.343,1.596-6.343,1.596Z" style="fill:#faac6d;"></path><path d="M347.361,246.565c6.156,6.234,23.209,15.013,26.607,21.386,2.184,4.098,11.054,24.895,11.054,24.895l9.689-3.414s-6.205-25.574-10.143-31.88c-3.938-6.306-21.193-21.007-27.504-23.909-12.009-5.523-15.67,7.409-9.702,12.923Z" style="fill:#faac6d;"></path></g><g><path d="M368.256,288.158c-7.325-8.461-12.064-9.124-13.588-18.291-4.826-29.04-4.864-37.115-8.689-40.48-20.925-2.079-38.906-2.268-38.906-2.268-5.18,21.553-6.842,49.575-7.359,62.441-.178,4.439,1.499,8.746,4.634,11.893h0s-8.283-9.468,11.66-9.266c19.943,.201,47.339,7.655,55.397,4.23,0,0,1.643-3.315-3.15-8.259Z" style="fill:#407BFF;"></path><path d="M326.862,252.106s5.967-9.236,11.172-2.964c6.443,7.761-9.917,22.599-9.917,22.599,0,0-16.223-10.872-13.654-19.118,3.246-10.429,12.399-.517,12.399-.517Z" style="fill:#fff;"></path><path d="M345.98,229.387s5.154-.431,10.939,2.444c5.785,2.875,15.316,11.293,15.296,11.35-.021,.056-12.113,13.816-12.113,13.816l-12.85-3.964-1.272-23.645Z" style="fill:#407BFF;"></path><path d="M309.241,227.159c-.799,.36-14.354-5.13-15.143-5.484-.789-.354-6.678,20.714-6.678,20.714l18.297,10.644,3.525-25.874Z" style="fill:#407BFF;"></path></g><g><path d="M370.064,189.725c-1.166-2.426-3.995-3.934-6.659-3.55,1.142-.642,1.518-2.199,1.142-3.454-.375-1.255-1.334-2.249-2.351-3.074-1.401-1.136-3.034-2.072-4.824-2.289-1.791-.217-3.753,.398-4.812,1.859l-8.183,13.538c-1.669,3.09-1.295,7.165,.91,9.899,2.205,2.734,6.108,3.963,9.482,2.986,3.373-.977,6.016-4.102,6.418-7.591,2.345,1.32,5.528,.936,7.492-.905,1.964-1.841,2.553-4.992,1.386-7.418Z" style="fill:#263238;"></path><path d="M352.418,185.583c-.974-1.224-2.773-1.305-4.337-1.28l-4.515,8.174c-.448,1.269-.225,2.755,.576,3.837,.801,1.082,2.156,1.73,3.501,1.672,1.96-.083,3.643-1.584,4.479-3.359,.836-1.775,.975-3.791,1.019-5.752,.026-1.148-.009-2.394-.724-3.292Z" style="fill:#407BFF;"></path><path d="M311.809,170.805c-5.365,.598-9.657,6.124-8.909,11.47-3.546-.072-6.149,3.626-6.511,7.154-.669,6.533,4.429,12.877,10.79,14.51,6.361,1.633,13.368-.986,17.873-5.764s6.692-11.416,6.992-17.976l-20.235-9.393Z" style="fill:#263238;"></path><path d="M335.253,228.875s-8.714,5.81-15.692,4.873c-5.447-.745-3.941-5.224-3.941-5.224,.733-.643,1.365-1.393,1.876-2.223,3.442-5.392-1.399-11.306-1.399-11.306l6.152-1.317,13.475-2.934c-6.384,10.44-.471,18.13-.471,18.13Z" style="fill:#faac6d;"></path><path d="M333.332,215.31s-6.899,11.3-15.789,11.005c3.442-5.392-1.399-11.306-1.399-11.306l6.152-1.317,11.037,1.619Z" style="isolation:isolate; opacity:.2;"></path><path d="M346.747,197.711c-1.553,11.169-8.711,23.183-18.127,24.252-17.302,1.961-23.758-1.76-24.809-14.568-.997-11.526,4.217-29.255,18.584-31.653,14.368-2.398,26.498,6.465,24.352,21.969Z" style="fill:#faac6d;"></path><path d="M320.884,199.239c-.151,1.429-1.032,2.517-1.928,2.411-.896-.106-1.559-1.34-1.408-2.768,.151-1.428,1.022-2.482,1.925-2.399,.902,.083,1.559,1.34,1.411,2.756Z" style="fill:#263238;"></path><path d="M309.557,197.477c-.143,1.355-.988,2.403-1.896,2.293-.908-.109-1.483-1.293-1.34-2.648,.143-1.355,.981-2.379,1.896-2.293,.914,.086,1.542,1.31,1.34,2.648Z" style="fill:#263238;"></path><path d="M317.539,191.657c-.09-.1-.153-.222-.182-.354-.029-.35,.231-.657,.581-.685h.012c2.069-.232,4.12,.572,5.481,2.148,.215,.284,.161,.688-.121,.904h0c-.288,.196-.678,.144-.904-.121h0c-1.111-1.228-2.753-1.834-4.396-1.623-.185-.026-.354-.122-.471-.269Z" style="fill:#263238;"></path><path d="M306.438,191.06c-.13-.034-.247-.106-.336-.206-.17-.312-.063-.703,.242-.884,1.708-1.188,3.891-1.462,5.839-.731,.322,.139,.47,.513,.331,.835l-.006,.014h0c-.151,.317-.525,.46-.849,.325h0c-1.563-.545-3.294-.29-4.634,.681-.19,.077-.406,.065-.586-.034Z" style="fill:#263238;"></path><path d="M311.61,199.371l.839,6.185c-1.544,.217-3.117-.034-4.517-.719,1.546-1.585,2.792-3.437,3.678-5.467Z" style="fill:#e97f3f;"></path><path d="M333.63,203.683s3.541-6.632,6.925-4.184c3.384,2.448,1.711,13.913-3.58,13.477-5.291-.437-6.042-5.787-3.345-9.293Z" style="fill:#faac6d;"></path><path d="M311.773,210.427c.938,1.462,1.763,2.993,2.47,4.58l.889-.238c3.995-1.122,5.486-2.957,5.913-4.652,.198-.835,.193-1.705-.014-2.538-.101-.487-.266-.958-.49-1.401-1.776,1.857-5.42,3.177-7.379,3.806-.846,.313-1.389,.443-1.389,.443Z" style="fill:#263238;"></path><path d="M313.137,210.028l.761,1.337c3.762-1.06,6.272-2.311,7.132-3.785-.101-.487-.266-.958-.49-1.401-1.789,1.905-5.433,3.225-7.403,3.85Z" style="fill:#fff;"></path><path d="M315.132,214.769c3.995-1.122,5.486-2.957,5.913-4.652-1.51,.449-2.929,1.163-4.189,2.108-.825,.648-1.428,1.537-1.723,2.543Z" style="fill:#d7504d;"></path><path d="M334.281,208.771l-1.516,11.977s-2.196,2.593,6.356-1.381c13.732-6.38,11.343-27.334,10.985-27.185-.358,.15-12.897,2.642-12.897,2.642,0,0-3.586,14.157-2.929,13.946Z" style="fill:#263238;"></path><path d="M315.921,168.176c-2.608-.095-5.216,1.333-6.541,3.581-1.325,2.248-1.311,5.221,.034,7.457,1.346,2.236,3.967,3.64,6.574,3.521-.385,1.816,.199,3.809,1.503,5.129,1.305,1.32,3.29,1.928,5.111,1.564-.913,2.632-.077,5.779,2.021,7.611,2.098,1.832,6.68,4.871,9.165,3.612,.39,2.585,1.637,1.729,4.225,2.098,2.608,.371,5.334-.393,7.452-1.961s3.627-3.902,4.319-6.444c.723-2.653,.332-5.964-1.994-7.431,2.742-2.484,3.546-6.862,1.864-10.157-1.682-3.295-5.699-5.213-9.319-4.449-.304-2.972-2.417-5.684-5.224-6.706-2.807-1.021-6.169-.301-8.312,1.78-3.094-2.773-7.922-2.126-10.878,.795" style="fill:#263238;"></path><path d="M331.234,201.105s4.66-5.841,7.498-2.825c2.837,3.016-.846,13.863-5.96,12.48-5.114-1.383-4.804-6.735-1.538-9.655Z" style="fill:#faac6d;"></path></g></g></g><g id="freepik--Character_1--inject-45"><g><g><path d="M196.587,220.495c-.661-.612,28.877-8.797,28.877-8.797l22.677-24.083s5.71,5.489,5.628,5.018c-.082-.471-9.912,26.093-19.203,31.782-9.291,5.688-32.242,13.842-32.242,13.842l-5.737-17.761Z" style="fill:#bf5e60;"></path><path d="M250.597,195.571c.503-.312,4.634-1.839,3.823-6.595-.811-4.756-.556-6.783-1.192-9.918-.637-3.134-3.121-3.133-3.093-1.973,0,0,.053-5.552-1.647-8.787-1.7-3.235-2.45-.417-2.45-.417,0,0-.722-.521-1.611,1-.889,1.521,.928,22.249,.928,22.249l5.241,4.442Z" style="fill:#bf5e60;"></path><path d="M250.651,183.576c-.197,0-.363-.154-.374-.354l-.375-6.542,.749-.043,.375,6.542c.012,.207-.146,.384-.353,.396h-.022Z" style="fill:#a74145;"></path><path d="M246.123,179.315c-.197,0-.362-.154-.374-.354-.17-2.983-.253-10.891-.254-10.971-.002-.207,.164-.377,.371-.379h.004c.206,0,.373,.166,.375,.371,0,.08,.084,7.97,.253,10.936,.012,.207-.146,.384-.353,.396h-.022Z" style="fill:#a74145;"></path></g><g><path d="M109.274,284.064s3.143,1.776,3.93,4.648c.787,2.872,2.178,4.965,2.617,7.138,.438,2.174-1.744,1.81-2.804,.571-1.059-1.239-2.452-4.127-3.245-3.192-.793,.934-2.668,11.349-3.916,12.518-1.248,1.169-1.474-.616-1.474-.616,0,0-.438,2.332-1.58,2.568-1.142,.236-1.308-1.316-1.308-1.316,0,0-.349,1.555-1.42,1.17-1.071-.385-.233-9.946-.435-10.343,0,0,.268,5.796-1.082,6.345-1.349,.548-1.668-2.671-1.976-5.233-.308-2.562,.308-5.65,1.289-8.08,1.224-3.031,2.182-7.491,5.212-7.734,3.03-.243,6.191,1.558,6.191,1.558Z" style="fill:#bf5e60;"></path><path d="M148.896,241.53c-6.008,6.085-22.654,14.653-25.97,20.874-2.132,4-10.789,24.298-10.789,24.298l-9.457-3.333s6.057-24.961,9.9-31.116c3.844-6.155,20.686-20.504,26.846-23.337,11.722-5.391,15.294,7.231,9.47,12.613Z" style="fill:#bf5e60;"></path></g><g><path d="M176.074,435.118c1.435,.132,2.831,0,3.344-.553,.273-.323,.31-.783,.092-1.146-.155-.332-.441-.585-.79-.698-1.804-.671-5.898,1.198-6.069,1.317-.107,.041-.172,.15-.158,.263,.007,.106,.081,.196,.184,.224,1.112,.3,2.249,.498,3.397,.593Zm1.962-2.001c.171,.012,.339,.047,.5,.105,.212,.063,.388,.211,.487,.408,.158,.355,.079,.5,0,.593-.579,.671-3.397,.434-5.451,0,1.4-.659,2.917-1.035,4.463-1.106h0Z" style="fill:#407BFF;"></path><path d="M172.73,434.499h.118c1.396-.474,4.279-2.633,4.187-3.95,0-.303-.197-.698-.908-.829-.527-.108-1.075,.006-1.514,.316-1.514,1.04-2.093,3.95-2.12,4.134-.012,.093,.023,.187,.092,.25,.035,.045,.088,.073,.145,.079Zm3.134-4.266h.158c.474,.092,.487,.29,.487,.342,0,.777-1.935,2.501-3.37,3.199,.235-1.259,.857-2.414,1.777-3.305,.276-.192,.614-.276,.948-.237h0Z" style="fill:#407BFF;"></path><polygon points="159.261 439.133 170.4 440.147 177.194 413.595 161.277 412.014 159.261 439.133" style="fill:#bf5e60;"></polygon><path d="M171.69,432.84l-12.165-1.106c-.46-.04-.887,.244-1.027,.685l-3.094,9.703c-.279,.857,.189,1.779,1.047,2.058,.122,.04,.247,.065,.375,.075,4.397,.316,8.255,.421,13.785,.922,6.451,.579,4.74,1.198,12.297,2.001,4.569,.474,5.872-4.648,3.95-5.069-8.755-1.922-9.44-4.674-12.56-8.163-.703-.678-1.631-1.072-2.607-1.106Z" style="fill:#263238;"></path></g><g><path d="M89.772,402.084c.803,1.198,1.751,2.225,2.541,2.251,.426-.003,.804-.271,.948-.672,.147-.336,.147-.717,0-1.053-.632-1.817-4.674-3.792-4.845-3.871-.091-.064-.212-.064-.303,0-.079,.08-.104,.198-.066,.303,.479,1.065,1.057,2.083,1.725,3.041Zm2.791,.25c.099,.138,.179,.288,.237,.448,.087,.206,.087,.439,0,.645-.171,.342-.342,.382-.461,.369-.882,0-2.488-2.343-3.423-4.226,1.385,.68,2.624,1.623,3.647,2.778v-.013Z" style="fill:#407BFF;"></path><path d="M88.073,399.122l.079,.079c1.317,.777,4.779,1.619,5.701,.737,.224-.211,.408-.593,0-1.238-.248-.473-.682-.821-1.198-.961-1.764-.514-4.424,.935-4.542,1.001-.078,.048-.128,.132-.132,.224,.012,.062,.044,.117,.092,.158Zm5.266-.303l.079,.132c.224,.421,.092,.553,0,.606-.566,.527-3.16,.092-4.621-.579,1.126-.612,2.413-.865,3.687-.724,.367,.066,.696,.268,.922,.566h-.066Z" style="fill:#407BFF;"></path><polygon points="75.974 391.67 82.28 400.913 106.014 389.722 97.881 376.363 75.974 391.67" style="fill:#bf5e60;"></polygon><path d="M88.732,397.266l-6.886-10.098c-.258-.38-.746-.528-1.172-.355l-9.466,3.792c-.838,.333-1.247,1.283-.914,2.12,.046,.116,.105,.226,.177,.328,2.554,3.594,6.359,8.716,9.479,13.284,3.66,5.359,.974,2.054,5.266,8.334,2.633,3.792,7.149,2.225,6.412,.395-3.357-8.308-2.791-10.533-2.093-15.088,.084-.973-.203-1.942-.803-2.712Z" style="fill:#263238;"></path></g><g><path d="M196.35,294.295c1.607,20.544,1.113,41.199-1.475,61.643-4.463,35.232-15.224,69.336-15.224,69.336l-25.832-2.637s9.326-31.309,11.591-66.119c2.515-37.931-8.294-65.83-8.294-65.83l39.234,3.607Z" style="fill:#263238;"></path><path d="M163.646,309.304c9.743,3.054,6.004,19.486,2.08,30.505-.28-10.256-1.457-20.468-3.515-30.519l1.435,.013Z" style="isolation:isolate; opacity:.3;"></path><path d="M175.205,292.373s-8.202,32.915-23.778,61.722c-17.05,31.598-51.439,41.604-51.439,41.604l-10.691-16.207s22.566-16.865,33.757-36.259c10.309-36.417,13.732-54.336,13.732-54.336l38.418,3.476Z" style="fill:#263238;"></path></g><g><path d="M184.995,246.139c.166,4.056,32.297-2.725,32.297-2.725l-6.175-27.916s-20.964,2.659-34.191,3.05c-12.831,4.19-1.716,21.339,8.068,27.591Z" style="fill:#407BFF;"></path><path d="M196.725,232.279c.619,10.533,1.694,41.645,2.807,77.632l-68.555-5.213c.382-8.453,11.415-37.023,8.742-75.046-.433-5.662,3.806-10.604,9.468-11.037,.131-.01,.262-.017,.393-.023,2.936-.105,6.188-.132,9.374,0,8.474,.255,16.928,.994,25.318,2.212,3.226,.592,6.359,1.382,9.045,2.146,5.046,1.401,3.108,4.1,3.407,9.328Z" style="fill:#407BFF;"></path><path d="M143.897,290.688l43.819-33.957s-14.909,31.301-43.819,33.957Z" style="isolation:isolate; opacity:.3;"></path><g style="opacity:.8;"><path d="M133.725,291.15l65.347,4.121c-.187-5.876-.372-11.548-.551-16.932l-61.646-2.129c-1.03,5.668-2.158,10.686-3.15,14.941Z" style="fill:#fff; opacity:.8;"></path><path d="M139.995,248.486c-.21,5.389-.65,10.5-1.232,15.294h59.259c-.199-5.65-.389-10.788-.566-15.294h-57.462Z" style="fill:#fff;"></path><path d="M193.565,217.655c-.184-.078-.36-.167-.565-.22-.219-.056-7.527,.608-10.853,.637-9.815,.382-14.552,.733-23.027,.478-3.186-.132-6.438-.106-9.374,0-.131,.005-.262,.012-.393,.022-.427,.033-.844,.099-1.254,.182-1.59,5.314-4.202,16.477-4.202,16.477v.829s53.212-1.218,52.99-1.55c-.181-.271-2.476-12.368-3.322-16.855Z" style="fill:#fff;"></path></g><path d="M197.577,246.712l-1.002-12.756,7.9,11.808s-2.801,.332-6.898,.948Z" style="isolation:isolate; opacity:.3;"></path><path d="M140.062,245.307c-.145,6.425-.606,12.481-1.317,18.116,7.057-7.057,7.9-18.116,7.9-18.116h-6.583Z" style="isolation:isolate; opacity:.3;"></path><path d="M147.619,218.764c-9.741,.656-27.82,22.619-27.82,22.619l13.995,22.619s9.15-10.059,17.919-20.763c8.571-10.48,7.518-25.258-4.094-24.475Z" style="fill:#407BFF;"></path><path d="M150.506,244.869l-16.749-17.983c-2.904,2.561-5.721,5.386-8.025,7.831,2.905,3.583,13.81,18.778,15.454,21.105,2.76-3.165,6.029-6.977,9.319-10.953Z" style="fill:#fff; opacity:.8;"></path><path d="M210.776,244.69c3.823-.708,6.516-1.276,6.516-1.276l-6.175-27.916s-3.935,.499-9.467,1.096c1.93,5.981,7.96,24.515,9.126,28.095Z" style="fill:#fff; opacity:.8;"></path><path d="M122.069,233.947c-.089,0-.178-.031-.25-.095-.154-.138-.167-.375-.03-.53,5.655-6.326,12.376-11.667,20.549-16.328,.179-.104,.408-.041,.511,.14,.103,.18,.04,.409-.14,.511-8.101,4.62-14.761,9.911-20.36,16.176-.074,.083-.177,.125-.28,.125Z" style="fill:#407BFF;"></path><path d="M145.668,216.945c-.181,0-.34-.131-.37-.315-.033-.204,.105-.397,.31-.43l1.767-.288c.201-.035,.397,.106,.43,.31s-.105,.397-.31,.43l-1.767,.288c-.02,.003-.041,.005-.061,.005Z" style="fill:#407BFF;"></path></g><g><path d="M181.08,217.442c-1.703-1.927-2.567-3.781-2.399-6.347,.15-2.273,.784-4.488,1.862-6.495l-7.461-.372-16.383-.841c1.722,1.926,3.119,4.12,4.137,6.495,2.093,4.648,.723,5.752-.082,8.757,0,0,9.568,8.044,18.523,6.15s1.803-7.346,1.803-7.346Z" style="fill:#bf5e60;"></path><path d="M180.497,204.6l-7.461-.372-16.383-.841c1.722,1.926,11.044,10.095,22.081,9.521-.061-.404-.084-1.083-.099-1.812,.15-2.273,.784-4.488,1.862-6.495Z" style="isolation:isolate; opacity:.2;"></path><path d="M175.687,159.507s18.449,8.673,4.946,26.576c-15.255,20.253-4.946-26.576-4.946-26.576Z" style="fill:#263238;"></path><path d="M144.304,189.705c3.895,11.555,13.801,22.902,24.005,22.188,18.747-1.298,24.875-6.491,23.473-20.344-1.208-12.425-10.269-30.276-25.966-30.004-15.697,.273-26.849,12.126-21.513,28.16Z" style="fill:#bf5e60;"></path><path d="M179.465,166.894c-5.094,3.339-11,5.228-17.086,5.466,0,0-6.881,2.986-3.259,10.659,3.622,7.673-.379,16.696,1.984,27.472,0,0-18.41-5.131-18.41-22.026-12.885-13.821,2.495-28.802,17.777-32.372,12.788-2.986,24.109,3.895,18.994,10.802Z" style="fill:#263238;"></path><path d="M171.753,186.251c.428,1.48,1.584,2.467,2.597,2.155,1.012-.311,1.389-1.726,.948-3.207-.441-1.48-1.584-2.441-2.597-2.168-1.013,.273-1.389,1.74-.948,3.22Z" style="fill:#263238;"></path><path d="M183.425,182.149c.415,1.415,1.519,2.35,2.441,2.064,.922-.285,1.298-1.649,.922-3.064-.376-1.415-1.519-2.337-2.454-2.077-.935,.26-1.324,1.662-.909,3.077Z" style="fill:#263238;"></path><path d="M173.805,177.54c.081-.119,.127-.259,.13-.402-.041-.383-.383-.661-.766-.623-2.242,.16-4.262,1.412-5.401,3.35-.174,.338-.042,.753,.296,.927l.016,.008h0c.345,.155,.752,.02,.935-.311h0c.937-1.526,2.562-2.496,4.349-2.596,.187-.055,.345-.181,.441-.351Z" style="fill:#263238;"></path><path d="M185.476,174.736c.128-.071,.235-.174,.312-.299,.145-.359-.022-.767-.376-.922-2.05-.921-4.422-.78-6.349,.376-.312,.223-.393,.653-.182,.974h0c.23,.301,.65,.379,.974,.182h0c1.549-.893,3.438-.965,5.05-.195,.198,.035,.403-.007,.571-.117Z" style="fill:#263238;"></path><path d="M181.413,185.218l2.038,6.491c1.602-.498,3.018-1.466,4.064-2.778-2.241-.86-4.308-2.118-6.102-3.713Z" style="fill:#a74145;"></path><path d="M159.39,193.47s-5.076-6.362-8.166-3.077c-3.09,3.285,.922,15.099,6.491,13.593,5.57-1.506,5.232-7.335,1.675-10.516Z" style="fill:#bf5e60;"></path><path d="M184.464,194.483c-.561,1.784-.995,3.607-1.298,5.453h-.986c-4.479,0-6.491-1.519-7.478-3.168-.435-.798-.675-1.688-.701-2.597-.027-.524,.021-1.048,.143-1.558,2.363,1.428,6.491,1.779,8.777,1.87,.986,.013,1.545,0,1.545,0Z" style="fill:#263238;"></path><path d="M182.945,194.444l-.416,1.597c-4.219,0-7.192-.623-8.504-1.908-.027-.524,.021-1.048,.143-1.558,2.363,1.428,6.543,1.779,8.777,1.869Z" style="fill:#fff;"></path><path d="M182.205,199.935c-4.479,0-6.491-1.519-7.478-3.168,1.7,.049,3.379,.396,4.96,1.025,1.041,.436,1.921,1.185,2.519,2.142Z" style="fill:#d7504d;"></path><path d="M150.57,160.863c.334-1.926,1.681-3.646,3.47-4.433,1.789-.787,3.967-.617,5.613,.438-.281-1.692,.671-3.415,2.041-4.448s3.09-1.482,4.786-1.736c2.216-.331,4.542-.357,6.629,.457,2.087,.815,3.894,2.597,4.263,4.807,1.51-1.053,3.781-.529,4.933,.907s1.265,3.525,.591,5.238c-.674,1.713-2.031,3.083-3.553,4.119-3.454,2.353-7.927,3.148-11.98,2.131,.929,.754,1.117,2.173,.676,3.285-.441,1.112-1.389,1.952-2.411,2.574-3.611,2.198-8.548,1.965-11.936-.563" style="fill:#263238;"></path><path d="M146.828,171.31c.358,2.566,3.393,3.828,5.709,3.71,2.402-.122,4.761-2.176,3.967-4.752l-.685,.289c1.568,2.213,4.736,2.651,6.715,.71s1.586-5.118-.593-6.726c-.389-.287-.763,.364-.379,.648,1.8,1.328,2.052,3.968,.441,5.548s-4.246,1.264-5.537-.558c-.232-.327-.819-.144-.685,.289,.725,2.353-1.691,3.886-3.756,3.805-1.881-.073-4.184-1.093-4.473-3.162-.066-.476-.789-.273-.723,.199h0Z" style="opacity:.3;"></path></g></g></g></svg>
